<svg xmlns="http://www.w3.org/2000/svg" version="1.1" xmlns:xlink="http://www.w3.org/1999/xlink" xmlns:svgjs="http://svgjs.dev/svgjs" width="1000" height="277" viewBox="0 0 1000 277"><g transform="matrix(1,0,0,1,-0.6060606060606233,-0.1986639001664514)"><svg viewBox="0 0 396 110" data-background-color="#333333" preserveAspectRatio="xMidYMid meet" height="277" width="1000" xmlns="http://www.w3.org/2000/svg" xmlns:xlink="http://www.w3.org/1999/xlink"><g id="tight-bounds" transform="matrix(1,0,0,1,0.2400000000000091,0.07889180151013875)"><svg viewBox="0 0 395.52 109.84221639697971" height="109.84221639697971" width="395.52"><g><svg viewBox="0 0 633.9527716425773 176.058802407537" height="109.84221639697971" width="395.52"><g><rect width="7.604138413754745" height="176.058802407537" x="210.92251172684675" y="0" fill="#ffffff" opacity="1" stroke-width="0" stroke="transparent" fill-opacity="1" class="rect-o-0" data-fill-palette-color="primary" rx="1%" id="o-0" data-palette-color="#ffffff"></rect></g><g transform="matrix(1,0,0,1,238.43277164257728,0.43795721991924097)"><svg viewBox="0 0 395.52 175.18288796769852" height="175.18288796769852" width="395.52"><g id="textblocktransform"><svg viewBox="0 0 395.52 175.18288796769852" height="175.18288796769852" width="395.52" id="textblock"><g><svg viewBox="0 0 395.52 175.18288796769852" height="175.18288796769852" width="395.52"><g transform="matrix(1,0,0,1,0,0)"><svg width="395.52" viewBox="-3.999997854232788 -56.349979400634766 362.7900085449219 156.6099395751953" height="175.18288796769852" data-palette-color="#ffffff"><svg></svg><svg></svg><g class="wordmark-text-0" data-fill-palette-color="primary" id="text-0"><path xmlns="http://www.w3.org/2000/svg" d="M48.68-44.19v0c0 1.14-0.21 2.24-0.63 3.3-0.427 1.053-0.737 2.133-0.93 3.24v0c-0.72 0.947-1.387 1.923-2 2.93-0.62 1.013-1.257 2.023-1.91 3.03-0.647 1.007-1.33 1.977-2.05 2.91-0.713 0.927-1.527 1.763-2.44 2.51v0c0.033 0.033 0.05 0.1 0.05 0.2v0c0 0.193-0.09 0.347-0.27 0.46-0.18 0.113-0.237 0.25-0.17 0.41v0c-0.813 0.847-1.61 1.677-2.39 2.49-0.78 0.82-1.497 1.733-2.15 2.74v0c-0.72 0.36-1.307 0.947-1.76 1.76v0c-0.193 0-0.34 0.04-0.44 0.12-0.093 0.08-0.223 0.153-0.39 0.22v0c-1.04 1.267-2.13 2.47-3.27 3.61-1.14 1.14-2.36 2.183-3.66 3.13v0c-0.487 0.353-0.977 0.677-1.47 0.97-0.487 0.293-0.957 0.603-1.41 0.93v0c-0.293 0.193-0.58 0.423-0.86 0.69-0.273 0.26-0.557 0.503-0.85 0.73v0c-0.947 0.813-1.877 1.487-2.79 2.02-0.907 0.54-1.98 0.907-3.22 1.1v0c-0.093 0.36-0.14 0.75-0.14 1.17v0 1.18c0 0.387-0.017 0.783-0.05 1.19-0.033 0.407-0.15 0.79-0.35 1.15v0 0.15c0 0.32 0.083 0.637 0.25 0.95 0.16 0.307 0.24 0.623 0.24 0.95v0c0 0.227-0.113 0.423-0.34 0.59v0h1.27c0 0.453 0.14 0.843 0.42 1.17 0.273 0.327 0.41 0.57 0.41 0.73v0c0 0.553-0.057 1.163-0.17 1.83-0.113 0.667-0.447 1.113-1 1.34v0 0.3c0 0.327-0.033 0.643-0.1 0.95-0.067 0.307-0.213 0.607-0.44 0.9v0c-0.193 0-0.38 0.01-0.56 0.03-0.18 0.013-0.35 0.02-0.51 0.02v0c-1.367 0-2.587-0.323-3.66-0.97v0c-0.36-0.847-0.597-1.72-0.71-2.62-0.113-0.893-0.17-1.797-0.17-2.71v0c0-1.787 0.13-3.56 0.39-5.32 0.26-1.76 0.47-3.517 0.63-5.27v0l0.73-1.42c0.067-0.913 0.183-1.833 0.35-2.76 0.16-0.927 0.32-1.847 0.48-2.76 0.167-0.907 0.307-1.817 0.42-2.73 0.113-0.913 0.153-1.823 0.12-2.73v0c0.26-0.553 0.447-1.14 0.56-1.76 0.113-0.62 0.17-1.223 0.17-1.81v0c0-0.327-0.013-0.653-0.04-0.98-0.033-0.32-0.133-0.627-0.3-0.92v0c0.2-0.133 0.33-0.297 0.39-0.49 0.067-0.193 0.167-0.373 0.3-0.54v0c0.093-1.267 0.173-2.527 0.24-3.78 0.067-1.253 0.1-2.5 0.1-3.74v0c0-0.68-0.017-1.353-0.05-2.02-0.033-0.673-0.083-1.35-0.15-2.03v0c-0.033-0.26-0.09-0.57-0.17-0.93-0.08-0.36-0.12-0.637-0.12-0.83v0c0-0.26 0.017-0.527 0.05-0.8 0.033-0.28 0.05-0.567 0.05-0.86v0c0-0.327-0.033-0.643-0.1-0.95-0.067-0.313-0.18-0.6-0.34-0.86v0c-1.567 0.46-2.967 1.073-4.2 1.84-1.24 0.76-2.493 1.613-3.76 2.56v0c-0.52 0.36-1.09 0.783-1.71 1.27-0.62 0.487-1.207 0.86-1.76 1.12v0c-0.093 0.067-0.213 0.107-0.36 0.12-0.147 0.02-0.27 0.03-0.37 0.03v0c-0.36 0-0.687-0.027-0.98-0.08-0.293-0.047-0.587-0.07-0.88-0.07v0c-0.453-0.453-0.99-0.81-1.61-1.07v0c-0.093-0.393-0.14-0.817-0.14-1.27v0c0-0.46 0.04-0.9 0.12-1.32 0.08-0.427 0.2-0.85 0.36-1.27v0c0.393-0.133 0.81-0.28 1.25-0.44 0.44-0.16 0.863-0.347 1.27-0.56 0.407-0.213 0.773-0.457 1.1-0.73 0.327-0.28 0.587-0.63 0.78-1.05v0c0.193 0.093 0.373 0.14 0.54 0.14v0c0.16 0 0.307-0.017 0.44-0.05 0.127-0.027 0.27-0.057 0.43-0.09v0c0.587-0.36 1.183-0.737 1.79-1.13 0.6-0.387 1.227-0.71 1.88-0.97v0c0.193-0.067 0.307-0.15 0.34-0.25 0.033-0.093 0.033-0.24 0-0.44v0c0.747-0.227 1.527-0.493 2.34-0.8 0.813-0.313 1.497-0.747 2.05-1.3v0h0.88c0.487-0.353 1.007-0.647 1.56-0.88 0.553-0.227 1.117-0.443 1.69-0.65 0.567-0.213 1.127-0.443 1.68-0.69 0.553-0.24 1.077-0.557 1.57-0.95v0c0.193-0.067 0.353-0.1 0.48-0.1v0c0.167 0 0.347 0.033 0.54 0.1v0c0.327-0.16 0.603-0.357 0.83-0.59v0l0.78-0.78c0.52 0 0.993-0.047 1.42-0.14 0.42-0.1 0.827-0.23 1.22-0.39 0.393-0.167 0.777-0.357 1.15-0.57 0.373-0.207 0.787-0.427 1.24-0.66v0c0.2 0.067 0.347 0.14 0.44 0.22 0.1 0.087 0.263 0.13 0.49 0.13v0c0.327-0.233 0.677-0.407 1.05-0.52 0.373-0.113 0.757-0.2 1.15-0.26 0.387-0.067 0.767-0.15 1.14-0.25 0.38-0.1 0.717-0.28 1.01-0.54v0c1.04 0 2.09-0.023 3.15-0.07 1.053-0.047 2.1-0.07 3.14-0.07v0c1.5 0 3.023 0.113 4.57 0.34 1.547 0.227 2.937 0.797 4.17 1.71v0c0.493 1.173 1.193 2.167 2.1 2.98v0c0.067 0.353 0.14 0.687 0.22 1 0.087 0.307 0.193 0.607 0.32 0.9v0c-0.227 0.487-0.34 1.023-0.34 1.61v0c0 0.587 0.057 1.167 0.17 1.74 0.113 0.567 0.17 1.127 0.17 1.68zM44.14-45.36v0c-0.16-0.293-0.267-0.627-0.32-1-0.047-0.373-0.053-0.74-0.02-1.1v0c-0.427-0.327-0.753-0.75-0.98-1.27-0.227-0.52-0.55-0.91-0.97-1.17v0c-0.293-0.167-0.71-0.267-1.25-0.3-0.54-0.027-0.987-0.09-1.34-0.19v0c-0.427-0.133-0.713-0.263-0.86-0.39-0.147-0.133-0.447-0.2-0.9-0.2v0c-0.393 0-0.783 0.043-1.17 0.13-0.393 0.08-0.783 0.12-1.17 0.12v0c-0.327 0-0.637-0.067-0.93-0.2-0.293-0.127-0.603-0.19-0.93-0.19v0c-0.36 0-0.693 0.113-1 0.34-0.307 0.227-0.673 0.29-1.1 0.19v0c-0.193 0.167-0.3 0.297-0.32 0.39-0.013 0.1-0.037 0.173-0.07 0.22-0.033 0.053-0.113 0.08-0.24 0.08v0h-0.69c-0.68 0-1.37 0.097-2.07 0.29-0.7 0.193-1.327 0.52-1.88 0.98v0c-0.1-0.033-0.19-0.06-0.27-0.08-0.08-0.013-0.17-0.02-0.27-0.02v0c-0.553 0-1.083 0.153-1.59 0.46-0.5 0.313-1.06 0.47-1.68 0.47v0c-0.393 0.387-0.867 0.693-1.42 0.92-0.553 0.233-1.113 0.453-1.68 0.66-0.573 0.213-1.103 0.46-1.59 0.74-0.487 0.273-0.86 0.67-1.12 1.19v0c-0.033 0.26 0.047 0.423 0.24 0.49 0.2 0.067 0.3 0.23 0.3 0.49v0c0 0.227-0.043 0.503-0.13 0.83-0.08 0.327-0.12 0.653-0.12 0.98v0c0 0.747 0.083 1.477 0.25 2.19 0.16 0.72 0.32 1.453 0.48 2.2v0c-0.16 0.1-0.273 0.247-0.34 0.44-0.067 0.193-0.18 0.34-0.34 0.44v0c0.453 1.367 0.68 2.767 0.68 4.2v0c0 1.14-0.12 2.253-0.36 3.34-0.247 1.093-0.417 2.21-0.51 3.35v0 0.05c0 0.193 0.063 0.323 0.19 0.39 0.133 0.067 0.2 0.18 0.2 0.34v0c0 0.1-0.017 0.18-0.05 0.24v0c-0.36 2.213-0.71 4.427-1.05 6.64-0.347 2.213-0.633 4.443-0.86 6.69v0h0.39c0.847 0 1.603-0.25 2.27-0.75 0.667-0.507 1.23-1.07 1.69-1.69v0h0.78c2.347-2.047 4.6-4.163 6.76-6.35 2.167-2.18 4.227-4.523 6.18-7.03v0c0.26 0 0.44-0.063 0.54-0.19 0.093-0.133 0.253-0.23 0.48-0.29v0c0.687-0.947 1.403-1.883 2.15-2.81 0.753-0.927 1.567-1.813 2.44-2.66v0c0.033-0.327 0.123-0.62 0.27-0.88 0.147-0.26 0.303-0.507 0.47-0.74 0.16-0.227 0.307-0.47 0.44-0.73 0.127-0.26 0.19-0.57 0.19-0.93v0c0.167-0.06 0.347-0.13 0.54-0.21 0.193-0.087 0.373-0.21 0.54-0.37v0c0.06-0.327 0.173-0.62 0.34-0.88 0.16-0.26 0.24-0.553 0.24-0.88v0c0-0.127-0.033-0.29-0.1-0.49v0c0.527-0.227 0.933-0.6 1.22-1.12 0.293-0.52 0.523-1.097 0.69-1.73 0.16-0.64 0.28-1.283 0.36-1.93 0.087-0.653 0.21-1.223 0.37-1.71zM86.62 5.81v0c0 0.393-0.113 0.727-0.34 1-0.227 0.28-0.503 0.51-0.83 0.69-0.327 0.173-0.67 0.333-1.03 0.48-0.353 0.147-0.66 0.303-0.92 0.47v0c-0.753-0.167-1.537-0.307-2.35-0.42-0.813-0.113-1.543-0.333-2.19-0.66v0c-1.34-1.46-2.277-3.143-2.81-5.05-0.54-1.907-0.89-3.803-1.05-5.69v0c-0.067-0.553-0.1-1.097-0.1-1.63 0-0.54-0.033-1.087-0.1-1.64v0c-0.067-0.487-0.36-0.78-0.88-0.88v0c0.393-0.067 0.67-0.27 0.83-0.61 0.167-0.34 0.267-0.73 0.3-1.17 0.033-0.44 0.04-0.88 0.02-1.32-0.013-0.44 0.01-0.807 0.07-1.1v0c-0.26 0.1-0.487 0.32-0.68 0.66-0.193 0.34-0.373 0.723-0.54 1.15-0.16 0.42-0.313 0.833-0.46 1.24-0.147 0.407-0.287 0.727-0.42 0.96v0c-1.367 2.34-2.953 4.47-4.76 6.39-1.807 1.92-3.67 3.823-5.59 5.71v0c-0.553 0.2-1.073 0.453-1.56 0.76-0.487 0.313-0.943 0.647-1.37 1v0c-1.233 0.36-2.403 0.54-3.51 0.54v0c-1.013 0-2.007-0.14-2.98-0.42-0.98-0.273-1.86-0.737-2.64-1.39v0l-1.8-4.1c-0.1-0.26-0.217-0.527-0.35-0.8-0.127-0.28-0.223-0.55-0.29-0.81v0c-0.067-0.293-0.09-0.61-0.07-0.95 0.013-0.34 0.02-0.643 0.02-0.91v0c0-1.133 0.04-2.28 0.12-3.44 0.087-1.153 0.21-2.3 0.37-3.44v0c0.067-0.453 0.163-0.927 0.29-1.42 0.133-0.487 0.233-0.957 0.3-1.41v0-0.54c0-0.16-0.017-0.363-0.05-0.61-0.033-0.247-0.133-0.4-0.3-0.46v0c0.787-1.893 1.18-3.863 1.18-5.91v0c0-0.327-0.01-0.643-0.03-0.95-0.013-0.313-0.037-0.633-0.07-0.96v0c0.227-0.227 0.373-0.493 0.44-0.8 0.067-0.313 0.1-0.64 0.1-0.98 0-0.34 0.007-0.673 0.02-1 0.013-0.327 0.103-0.637 0.27-0.93v0c-0.033-0.353-0.057-0.703-0.07-1.05-0.02-0.34-0.03-0.69-0.03-1.05v0c0-2.18 0.17-4.337 0.51-6.47 0.347-2.127 0.52-4.283 0.52-6.47v0-2.05c0-0.453 0.007-0.923 0.02-1.41 0.02-0.493 0.087-0.967 0.2-1.42 0.113-0.453 0.283-0.883 0.51-1.29 0.227-0.407 0.553-0.757 0.98-1.05v0c0.06 0 0.117-0.01 0.17-0.03 0.047-0.013 0.103-0.02 0.17-0.02v0c0.293 0 0.52 0.073 0.68 0.22 0.167 0.147 0.41 0.203 0.73 0.17v0c0.587 0.847 1.053 1.74 1.4 2.68 0.34 0.947 0.51 1.94 0.51 2.98v0c0 0.78-0.113 1.547-0.34 2.3-0.233 0.747-0.35 1.527-0.35 2.34v0c0 0.327 0.017 0.653 0.05 0.98 0.033 0.327 0.05 0.65 0.05 0.97v0c0 0.327-0.04 0.647-0.12 0.96-0.08 0.307-0.233 0.573-0.46 0.8v0c0.06 0.653 0.107 1.313 0.14 1.98 0.033 0.667 0.05 1.327 0.05 1.98v0c0 1.853-0.113 3.707-0.34 5.56-0.227 1.86-0.487 3.717-0.78 5.57-0.293 1.853-0.553 3.71-0.78 5.57-0.227 1.853-0.34 3.723-0.34 5.61v0 1.42c0 0.453 0.03 0.923 0.09 1.41v0c-0.193 0.46-0.29 0.95-0.29 1.47v0c0 0.713 0.163 1.413 0.49 2.1 0.327 0.68 0.717 1.297 1.17 1.85v0c0.16 0.033 0.313 0.06 0.46 0.08 0.147 0.013 0.303 0.02 0.47 0.02v0c0.847 0 1.603-0.18 2.27-0.54 0.667-0.353 1.3-0.79 1.9-1.31 0.607-0.52 1.2-1.057 1.78-1.61 0.587-0.56 1.223-1.017 1.91-1.37v0c1.04-1.333 2.017-2.677 2.93-4.03 0.913-1.353 1.793-2.76 2.64-4.22v0c0.06-0.787 0.263-1.577 0.61-2.37 0.34-0.8 0.697-1.59 1.07-2.37 0.373-0.78 0.717-1.547 1.03-2.3 0.307-0.747 0.46-1.46 0.46-2.14v0c0-0.36-0.113-0.607-0.34-0.74v0c0.327-0.847 0.57-1.723 0.73-2.63 0.16-0.913 0.297-1.827 0.41-2.74 0.12-0.907 0.243-1.81 0.37-2.71 0.133-0.893 0.33-1.78 0.59-2.66v0c0-0.193-0.01-0.387-0.03-0.58-0.013-0.2-0.02-0.397-0.02-0.59v0c0-1.5 0.147-2.973 0.44-4.42 0.293-1.447 0.44-2.92 0.44-4.42v0c0-0.36-0.027-0.693-0.08-1-0.047-0.307-0.07-0.607-0.07-0.9v0c0-0.26 0.09-0.423 0.27-0.49 0.18-0.067 0.27-0.247 0.27-0.54v0c0-0.26-0.027-0.537-0.08-0.83-0.047-0.293-0.07-0.603-0.07-0.93v0c0-1.007 0.097-1.997 0.29-2.97 0.2-0.98 0.3-1.973 0.3-2.98v0-0.59c0-0.227-0.033-0.437-0.1-0.63v0c0.227-0.36 0.537-0.597 0.93-0.71 0.387-0.113 0.76-0.17 1.12-0.17v0c0.587 0 1.077 0.063 1.47 0.19v0c0.613 1.66 1.133 3.363 1.56 5.11 0.42 1.74 0.76 3.503 1.02 5.29v0c0.067 0.427 0.157 0.877 0.27 1.35 0.113 0.467 0.17 0.93 0.17 1.39v0c0 0.093-0.023 0.207-0.07 0.34-0.047 0.127-0.087 0.257-0.12 0.39v0c-0.033 0.26-0.06 0.52-0.08 0.78-0.013 0.26-0.02 0.52-0.02 0.78v0c0 0.78 0.05 1.563 0.15 2.35 0.093 0.78 0.14 1.577 0.14 2.39v0c0 0.913-0.12 1.783-0.36 2.61-0.247 0.833-0.437 1.703-0.57 2.61v0c-0.127 0.947-0.173 1.877-0.14 2.79 0.033 0.907-0.033 1.833-0.2 2.78v0c-0.06 0.393-0.157 0.777-0.29 1.15-0.133 0.373-0.2 0.77-0.2 1.19v0c0 0.293 0.027 0.587 0.08 0.88 0.047 0.293 0.07 0.603 0.07 0.93v0c0 0.487-0.113 0.86-0.34 1.12v0c0.067 0.26 0.117 0.497 0.15 0.71 0.027 0.213 0.09 0.45 0.19 0.71v0c-0.16 0.193-0.273 0.403-0.34 0.63-0.067 0.233-0.1 0.48-0.1 0.74v0c0 0.32 0.017 0.62 0.05 0.9 0.033 0.28 0.05 0.563 0.05 0.85v0c0 0.687-0.107 1.34-0.32 1.96-0.213 0.62-0.35 1.253-0.41 1.9v0c-0.033 0.46-0.043 0.907-0.03 1.34 0.02 0.44 0.03 0.89 0.03 1.35v0c0 0.487-0.027 0.957-0.08 1.41-0.047 0.46-0.183 0.917-0.41 1.37v0c0.067 0.193 0.147 0.39 0.24 0.59 0.1 0.193 0.247 0.34 0.44 0.44v0c0 1.007 0.14 2.023 0.42 3.05 0.273 1.027 0.653 1.993 1.14 2.9v0c0.1 0.2 0.247 0.347 0.44 0.44 0.2 0.1 0.38 0.207 0.54 0.32 0.167 0.113 0.297 0.253 0.39 0.42 0.1 0.16 0.117 0.403 0.05 0.73v0c0.067 0.033 0.163 0.05 0.29 0.05v0c0.26 0 0.48-0.067 0.66-0.2 0.18-0.127 0.4-0.19 0.66-0.19v0h0.34c0.293 0.293 0.597 0.633 0.91 1.02 0.307 0.393 0.46 0.817 0.46 1.27zM147.56 2v0c-0.067 0.653-0.293 1.167-0.68 1.54-0.393 0.373-0.9 0.56-1.52 0.56v0c-0.327 0-0.637-0.047-0.93-0.14v0c-0.613 0.487-1.343 0.86-2.19 1.12-0.847 0.26-1.647 0.52-2.4 0.78v0c-0.907-0.033-1.8-0.113-2.68-0.24-0.88-0.133-1.793-0.167-2.74-0.1v0c-0.32-0.227-0.66-0.373-1.02-0.44-0.36-0.067-0.727-0.107-1.1-0.12-0.373-0.02-0.73-0.077-1.07-0.17-0.347-0.1-0.683-0.33-1.01-0.69v0h-2.44c-0.227 0-0.56-0.107-1-0.32-0.44-0.207-0.927-0.423-1.46-0.65-0.54-0.233-1.11-0.447-1.71-0.64-0.6-0.193-1.163-0.29-1.69-0.29v0h-0.29c-0.36-0.293-0.773-0.513-1.24-0.66-0.473-0.147-0.953-0.277-1.44-0.39-0.493-0.113-0.967-0.237-1.42-0.37-0.453-0.127-0.843-0.307-1.17-0.54v0c-0.327-0.227-0.703-0.46-1.13-0.7-0.42-0.247-0.857-0.353-1.31-0.32v0c-0.62-0.36-1.263-0.67-1.93-0.93-0.667-0.26-1.343-0.503-2.03-0.73v0l-2-0.73c-0.653-0.26-1.303-0.57-1.95-0.93v0c-0.1 0.033-0.217 0.033-0.35 0-0.127-0.033-0.24-0.05-0.34-0.05v0c-0.193 0-0.307 0.063-0.34 0.19v0c-0.227-0.227-0.48-0.42-0.76-0.58-0.273-0.167-0.54-0.363-0.8-0.59v0c-0.133 0.033-0.257 0.06-0.37 0.08-0.113 0.013-0.25 0.02-0.41 0.02v0c-0.293 0-0.58-0.033-0.86-0.1-0.273-0.06-0.54-0.14-0.8-0.24v0c-0.293 0.653-0.49 1.387-0.59 2.2-0.1 0.813-0.173 1.65-0.22 2.51-0.047 0.86-0.103 1.723-0.17 2.59-0.067 0.86-0.213 1.65-0.44 2.37v0c0.067 0.26 0.1 0.52 0.1 0.78v0 0.83c0 0.553 0.08 0.993 0.24 1.32v0c-0.067 0.293-0.123 0.57-0.17 0.83-0.047 0.26-0.103 0.52-0.17 0.78v0c0.033 0.36 0.057 0.693 0.07 1 0.02 0.307 0.03 0.64 0.03 1v0 0.83c0 0.293-0.033 0.587-0.1 0.88v0c-0.327 0.193-0.653 0.38-0.98 0.56-0.32 0.18-0.643 0.4-0.97 0.66v0c-0.227-0.427-0.617-0.67-1.17-0.73v0c-0.133 0.16-0.223 0.38-0.27 0.66-0.053 0.273-0.21 0.41-0.47 0.41v0c-0.453-0.36-0.827-0.653-1.12-0.88-0.293-0.227-0.62-0.567-0.98-1.02v0c-0.033-0.067-0.05-0.15-0.05-0.25v0c0-0.16 0.033-0.307 0.1-0.44 0.067-0.127 0.1-0.257 0.1-0.39v0c0-0.387-0.05-0.727-0.15-1.02v0c-0.06-0.427-0.107-0.843-0.14-1.25-0.033-0.407-0.05-0.803-0.05-1.19v0c0-0.553 0.04-1.093 0.12-1.62 0.08-0.52 0.233-1.057 0.46-1.61v0c0.36-0.94 0.613-1.933 0.76-2.98 0.147-1.04 0.253-2.087 0.32-3.14 0.067-1.06 0.107-2.127 0.12-3.2 0.013-1.073 0.07-2.1 0.17-3.08v0c-0.227-0.52-0.493-0.933-0.8-1.24-0.313-0.313-0.47-0.81-0.47-1.49v0c0-0.62 0.197-1.1 0.59-1.44 0.387-0.347 0.727-0.763 1.02-1.25v0c-0.06-0.193-0.01-0.323 0.15-0.39v0l0.59-5.13c0.027-0.353 0.083-0.743 0.17-1.17 0.08-0.42 0.137-0.81 0.17-1.17v0c0.067-0.747 0.1-1.48 0.1-2.2 0-0.713 0.03-1.43 0.09-2.15v0c0.167-1.593 0.323-3.17 0.47-4.73 0.147-1.567 0.22-3.13 0.22-4.69v0c0-0.747-0.027-1.497-0.08-2.25-0.047-0.747-0.15-1.493-0.31-2.24v0c-0.553 0.16-1.167 0.33-1.84 0.51-0.667 0.18-1.227 0.48-1.68 0.9v0h-0.39c-0.847 0-1.637 0.163-2.37 0.49-0.733 0.327-1.473 0.637-2.22 0.93v0c-0.327 0.16-0.653 0.267-0.98 0.32-0.327 0.047-0.667 0.12-1.02 0.22v0c-0.167 0.033-0.347 0.13-0.54 0.29-0.193 0.16-0.373 0.273-0.54 0.34v0l-0.83 0.2c-0.227 0.06-0.323 0.207-0.29 0.44 0.033 0.227-0.047 0.373-0.24 0.44v0c-0.167 0.16-0.397 0.233-0.69 0.22-0.293-0.02-0.52-0.03-0.68-0.03v0h-0.2c-0.813 0.587-1.6 1.083-2.36 1.49-0.767 0.407-1.67 0.677-2.71 0.81v0l-1.08 0.68c-0.36 0.227-0.767 0.34-1.22 0.34v0c-0.36 0-0.653-0.063-0.88-0.19v0c-0.26-0.393-0.463-0.833-0.61-1.32-0.147-0.487-0.4-0.91-0.76-1.27v0c0.167-0.167 0.273-0.387 0.32-0.66 0.053-0.28 0.11-0.533 0.17-0.76v0c0.98-0.42 1.967-0.827 2.96-1.22 0.993-0.387 1.943-0.857 2.85-1.41v0c0.1 0.027 0.247 0.04 0.44 0.04v0c0.327 0 0.62-0.047 0.88-0.14 0.26-0.1 0.52-0.213 0.78-0.34 0.26-0.133 0.52-0.25 0.78-0.35 0.26-0.093 0.57-0.123 0.93-0.09v0c1.107-0.62 2.28-1.127 3.52-1.52 1.233-0.387 2.403-0.923 3.51-1.61v0c0.167 0 0.307 0.033 0.42 0.1 0.113 0.067 0.233 0.1 0.36 0.1v0c0.133 0 0.217-0.017 0.25-0.05v0c0.193-0.26 0.453-0.447 0.78-0.56 0.327-0.113 0.66-0.213 1-0.3 0.34-0.08 0.667-0.193 0.98-0.34 0.307-0.147 0.51-0.383 0.61-0.71v0c0.16 0.133 0.403 0.2 0.73 0.2v0c0.553 0 1.067-0.113 1.54-0.34 0.473-0.227 0.987-0.34 1.54-0.34v0c0.127 0 0.247 0.023 0.36 0.07 0.113 0.047 0.237 0.07 0.37 0.07v0c0.26 0 0.397-0.08 0.41-0.24 0.02-0.167 0.11-0.313 0.27-0.44v0c1.987-0.36 3.963-0.687 5.93-0.98 1.973-0.293 3.97-0.44 5.99-0.44v0c0.293-0.193 0.617-0.29 0.97-0.29v0c0.36 0 0.687 0.097 0.98 0.29v0c0.553-0.06 1.107-0.107 1.66-0.14 0.553-0.033 1.107-0.05 1.66-0.05v0c1.267 0 2.57 0.08 3.91 0.24 1.333 0.167 2.66 0.42 3.98 0.76 1.313 0.34 2.573 0.797 3.78 1.37 1.207 0.567 2.33 1.24 3.37 2.02v0c0.1 0.293 0.23 0.587 0.39 0.88 0.16 0.293 0.37 0.52 0.63 0.68v0c0 0.067-0.007 0.117-0.02 0.15-0.013 0.033-0.02 0.083-0.02 0.15v0c0 0.353 0.103 0.693 0.31 1.02 0.213 0.327 0.32 0.717 0.32 1.17v0c0 0.46-0.073 0.917-0.22 1.37-0.147 0.46-0.203 0.917-0.17 1.37v0c-0.36 0.52-0.66 0.993-0.9 1.42-0.247 0.42-0.403 0.957-0.47 1.61v0c-0.587 0.587-1.107 1.23-1.56 1.93-0.453 0.693-0.917 1.377-1.39 2.05-0.473 0.667-1.003 1.277-1.59 1.83-0.587 0.553-1.287 0.993-2.1 1.32v0c-0.033 0.32-0.163 0.677-0.39 1.07v0h-1.02c-0.1 0.26-0.263 0.457-0.49 0.59v0l-0.69 0.39c-0.227 0.127-0.413 0.287-0.56 0.48-0.147 0.2-0.22 0.477-0.22 0.83v0c-0.06-0.027-0.14-0.04-0.24-0.04v0c-0.327 0-0.71 0.16-1.15 0.48-0.44 0.327-0.79 0.59-1.05 0.79v0c-0.553 0.387-1.113 0.743-1.68 1.07-0.573 0.327-1.07 0.783-1.49 1.37v0c-1.307 0.553-2.543 1.197-3.71 1.93-1.173 0.727-2.443 1.303-3.81 1.73v0c-0.52 0.553-1.13 0.983-1.83 1.29-0.7 0.313-1.377 0.647-2.03 1v0 0.15c0 0.26 0.097 0.513 0.29 0.76 0.2 0.24 0.43 0.45 0.69 0.63 0.26 0.18 0.543 0.303 0.85 0.37 0.313 0.067 0.583 0.067 0.81 0v0c0.647 0.587 1.393 1.057 2.24 1.41 0.847 0.36 1.727 0.687 2.64 0.98 0.913 0.293 1.81 0.603 2.69 0.93 0.873 0.327 1.687 0.733 2.44 1.22v0h1.17c0.747 0.653 1.633 1.14 2.66 1.46 1.027 0.327 2.01 0.62 2.95 0.88v0c0.393 0.36 0.89 0.63 1.49 0.81 0.607 0.18 1.187 0.27 1.74 0.27v0h0.29c0.133 0 0.247-0.017 0.34-0.05v0 0.1c0 0.16 0.05 0.263 0.15 0.31 0.093 0.053 0.2 0.087 0.32 0.1 0.113 0.02 0.227 0.053 0.34 0.1 0.113 0.047 0.203 0.12 0.27 0.22v0h0.48c0.687 0 1.34 0.137 1.96 0.41 0.613 0.28 1.263 0.42 1.95 0.42v0c0.293 0 0.52-0.033 0.68-0.1v0c0.2 0.067 0.347 0.197 0.44 0.39 0.1 0.193 0.23 0.357 0.39 0.49v0c0.233-0.033 0.447-0.057 0.64-0.07 0.193-0.02 0.387-0.03 0.58-0.03v0c0.72 0 1.39 0.083 2.01 0.25 0.613 0.16 1.247 0.403 1.9 0.73v0c1.04-0.46 2.067-0.833 3.08-1.12 1.007-0.293 2.08-0.44 3.22-0.44v0 0.09c0 0.393 0.107 0.76 0.32 1.1 0.207 0.34 0.393 0.69 0.56 1.05zM128.86-36.96v0c0-0.393-0.073-0.703-0.22-0.93-0.147-0.227-0.333-0.43-0.56-0.61-0.233-0.18-0.47-0.35-0.71-0.51-0.247-0.167-0.467-0.38-0.66-0.64v0c-0.847-0.26-1.677-0.553-2.49-0.88-0.813-0.327-1.643-0.603-2.49-0.83v0c-0.427-0.093-0.85-0.183-1.27-0.27-0.427-0.08-0.85-0.12-1.27-0.12v0h-1.07c-0.2-0.033-0.407-0.073-0.62-0.12-0.207-0.047-0.41-0.087-0.61-0.12v0c-0.453-0.067-0.9-0.117-1.34-0.15-0.44-0.033-0.887-0.05-1.34-0.05v0c-0.847 0-1.693 0.033-2.54 0.1v0l-2.54 0.2c-0.36 0.027-0.733 0.04-1.12 0.04-0.393 0-0.753 0.033-1.08 0.1v0c-0.16 0.033-0.387 0.107-0.68 0.22-0.293 0.113-0.603 0.227-0.93 0.34-0.327 0.113-0.643 0.237-0.95 0.37-0.307 0.127-0.577 0.223-0.81 0.29v0c0.033 0.227 0.05 0.457 0.05 0.69v0 0.63c0 0.487-0.017 0.977-0.05 1.47-0.027 0.487-0.09 0.973-0.19 1.46v0c-0.033 0.193-0.083 0.39-0.15 0.59-0.06 0.193-0.107 0.387-0.14 0.58v0c-0.067 0.293-0.1 0.62-0.1 0.98v0 0.93c-0.067 0.747-0.117 1.477-0.15 2.19-0.033 0.72-0.08 1.453-0.14 2.2v0c-0.2 2.147-0.403 4.28-0.61 6.4-0.213 2.113-0.353 4.243-0.42 6.39v0c1.073-0.227 2.1-0.567 3.08-1.02 0.973-0.453 1.933-0.95 2.88-1.49 0.94-0.54 1.883-1.07 2.83-1.59 0.947-0.52 1.94-0.96 2.98-1.32v0c0.26-0.353 0.577-0.643 0.95-0.87 0.373-0.233 0.69-0.527 0.95-0.88v0c0.327 0 0.57-0.073 0.73-0.22 0.167-0.147 0.38-0.253 0.64-0.32v0c1.56-1.367 3.153-2.653 4.78-3.86 1.633-1.2 3.197-2.487 4.69-3.86v0c0.133-0.453 0.353-0.9 0.66-1.34 0.307-0.44 0.607-0.887 0.9-1.34 0.293-0.453 0.557-0.91 0.79-1.37 0.227-0.453 0.34-0.94 0.34-1.46zM190.53 2v0c-0.067 0.653-0.297 1.167-0.69 1.54-0.387 0.373-0.89 0.56-1.51 0.56v0c-0.327 0-0.637-0.047-0.93-0.14v0c-0.62 0.487-1.35 0.86-2.19 1.12-0.847 0.26-1.647 0.52-2.4 0.78v0c-0.907-0.033-1.8-0.113-2.68-0.24-0.88-0.133-1.793-0.167-2.74-0.1v0c-0.327-0.227-0.667-0.373-1.02-0.44-0.36-0.067-0.727-0.107-1.1-0.12-0.373-0.02-0.733-0.077-1.08-0.17-0.34-0.1-0.673-0.33-1-0.69v0h-2.44c-0.227 0-0.56-0.107-1-0.32-0.44-0.207-0.927-0.423-1.46-0.65-0.54-0.233-1.11-0.447-1.71-0.64-0.607-0.193-1.17-0.29-1.69-0.29v0h-0.29c-0.36-0.293-0.777-0.513-1.25-0.66-0.467-0.147-0.947-0.277-1.44-0.39-0.487-0.113-0.957-0.237-1.41-0.37-0.46-0.127-0.85-0.307-1.17-0.54v0c-0.327-0.227-0.703-0.46-1.13-0.7-0.42-0.247-0.86-0.353-1.32-0.32v0c-0.613-0.36-1.253-0.67-1.92-0.93-0.667-0.26-1.343-0.503-2.03-0.73v0l-2-0.73c-0.653-0.26-1.307-0.57-1.96-0.93v0c-0.093 0.033-0.207 0.033-0.34 0-0.127-0.033-0.24-0.05-0.34-0.05v0c-0.193 0-0.307 0.063-0.34 0.19v0c-0.227-0.227-0.48-0.42-0.76-0.58-0.273-0.167-0.54-0.363-0.8-0.59v0c-0.133 0.033-0.257 0.06-0.37 0.08-0.113 0.013-0.25 0.02-0.41 0.02v0c-0.293 0-0.58-0.033-0.86-0.1-0.273-0.06-0.54-0.14-0.8-0.24v0c-0.293 0.653-0.49 1.387-0.59 2.2-0.1 0.813-0.173 1.65-0.22 2.51-0.047 0.86-0.103 1.723-0.17 2.59-0.067 0.86-0.213 1.65-0.44 2.37v0c0.067 0.26 0.1 0.52 0.1 0.78v0 0.83c0 0.553 0.08 0.993 0.24 1.32v0c-0.067 0.293-0.123 0.57-0.17 0.83-0.047 0.26-0.103 0.52-0.17 0.78v0c0.033 0.36 0.057 0.693 0.07 1 0.02 0.307 0.03 0.64 0.03 1v0 0.83c0 0.293-0.033 0.587-0.1 0.88v0c-0.327 0.193-0.653 0.38-0.98 0.56-0.327 0.18-0.65 0.4-0.97 0.66v0c-0.233-0.427-0.627-0.67-1.18-0.73v0c-0.127 0.16-0.213 0.38-0.26 0.66-0.053 0.273-0.21 0.41-0.47 0.41v0c-0.453-0.36-0.827-0.653-1.12-0.88-0.293-0.227-0.62-0.567-0.98-1.02v0c-0.033-0.067-0.05-0.15-0.05-0.25v0c0-0.16 0.033-0.307 0.1-0.44 0.067-0.127 0.1-0.257 0.1-0.39v0c0-0.387-0.05-0.727-0.15-1.02v0c-0.067-0.427-0.113-0.843-0.14-1.25-0.033-0.407-0.05-0.803-0.05-1.19v0c0-0.553 0.04-1.093 0.12-1.62 0.08-0.52 0.233-1.057 0.46-1.61v0c0.36-0.94 0.613-1.933 0.76-2.98 0.147-1.04 0.253-2.087 0.32-3.14 0.06-1.06 0.1-2.127 0.12-3.2 0.013-1.073 0.07-2.1 0.17-3.08v0c-0.227-0.52-0.497-0.933-0.81-1.24-0.307-0.313-0.46-0.81-0.46-1.49v0c0-0.62 0.197-1.1 0.59-1.44 0.387-0.347 0.727-0.763 1.02-1.25v0c-0.067-0.193-0.017-0.323 0.15-0.39v0l0.58-5.13c0.033-0.353 0.093-0.743 0.18-1.17 0.08-0.42 0.137-0.81 0.17-1.17v0c0.06-0.747 0.09-1.48 0.09-2.2 0-0.713 0.033-1.43 0.1-2.15v0c0.167-1.593 0.323-3.17 0.47-4.73 0.147-1.567 0.22-3.13 0.22-4.69v0c0-0.747-0.027-1.497-0.08-2.25-0.047-0.747-0.153-1.493-0.32-2.24v0c-0.553 0.16-1.163 0.33-1.83 0.51-0.667 0.18-1.227 0.48-1.68 0.9v0h-0.39c-0.847 0-1.637 0.163-2.37 0.49-0.733 0.327-1.473 0.637-2.22 0.93v0c-0.327 0.16-0.653 0.267-0.98 0.32-0.327 0.047-0.667 0.12-1.02 0.22v0c-0.167 0.033-0.347 0.13-0.54 0.29-0.193 0.16-0.373 0.273-0.54 0.34v0l-0.83 0.2c-0.227 0.06-0.323 0.207-0.29 0.44 0.033 0.227-0.05 0.373-0.25 0.44v0c-0.16 0.16-0.387 0.233-0.68 0.22-0.293-0.02-0.52-0.03-0.68-0.03v0h-0.2c-0.813 0.587-1.603 1.083-2.37 1.49-0.76 0.407-1.663 0.677-2.71 0.81v0l-1.07 0.68c-0.36 0.227-0.767 0.34-1.22 0.34v0c-0.36 0-0.653-0.063-0.88-0.19v0c-0.26-0.393-0.463-0.833-0.61-1.32-0.147-0.487-0.4-0.91-0.76-1.27v0c0.167-0.167 0.273-0.387 0.32-0.66 0.047-0.28 0.103-0.533 0.17-0.76v0c0.98-0.42 1.967-0.827 2.96-1.22 0.987-0.387 1.937-0.857 2.85-1.41v0c0.1 0.027 0.247 0.04 0.44 0.04v0c0.327 0 0.62-0.047 0.88-0.14 0.26-0.1 0.52-0.213 0.78-0.34 0.26-0.133 0.52-0.25 0.78-0.35 0.26-0.093 0.57-0.123 0.93-0.09v0c1.107-0.62 2.28-1.127 3.52-1.52 1.233-0.387 2.403-0.923 3.51-1.61v0c0.167 0 0.307 0.033 0.42 0.1 0.113 0.067 0.233 0.1 0.36 0.1v0c0.133 0 0.217-0.017 0.25-0.05v0c0.193-0.26 0.453-0.447 0.78-0.56 0.327-0.113 0.66-0.213 1-0.3 0.34-0.08 0.667-0.193 0.98-0.34 0.307-0.147 0.51-0.383 0.61-0.71v0c0.16 0.133 0.403 0.2 0.73 0.2v0c0.553 0 1.067-0.113 1.54-0.34 0.473-0.227 0.987-0.34 1.54-0.34v0c0.127 0 0.247 0.023 0.36 0.07 0.113 0.047 0.237 0.07 0.37 0.07v0c0.26 0 0.397-0.08 0.41-0.24 0.02-0.167 0.11-0.313 0.27-0.44v0c1.987-0.36 3.963-0.687 5.93-0.98 1.973-0.293 3.97-0.44 5.99-0.44v0c0.287-0.193 0.61-0.29 0.97-0.29v0c0.36 0 0.687 0.097 0.98 0.29v0c0.553-0.06 1.107-0.107 1.66-0.14 0.553-0.033 1.107-0.05 1.66-0.05v0c1.267 0 2.567 0.08 3.9 0.24 1.34 0.167 2.667 0.42 3.98 0.76 1.32 0.34 2.583 0.797 3.79 1.37 1.207 0.567 2.33 1.24 3.37 2.02v0c0.093 0.293 0.223 0.587 0.39 0.88 0.16 0.293 0.37 0.52 0.63 0.68v0c0 0.067-0.007 0.117-0.02 0.15-0.02 0.033-0.03 0.083-0.03 0.15v0c0 0.353 0.107 0.693 0.32 1.02 0.213 0.327 0.32 0.717 0.32 1.17v0c0 0.46-0.073 0.917-0.22 1.37-0.147 0.46-0.203 0.917-0.17 1.37v0c-0.36 0.52-0.66 0.993-0.9 1.42-0.247 0.42-0.403 0.957-0.47 1.61v0c-0.587 0.587-1.107 1.23-1.56 1.93-0.453 0.693-0.917 1.377-1.39 2.05-0.473 0.667-1.003 1.277-1.59 1.83-0.587 0.553-1.287 0.993-2.1 1.32v0c-0.033 0.32-0.163 0.677-0.39 1.07v0h-1.03c-0.093 0.26-0.253 0.457-0.48 0.59v0l-0.69 0.39c-0.227 0.127-0.413 0.287-0.56 0.48-0.147 0.2-0.22 0.477-0.22 0.83v0c-0.067-0.027-0.147-0.04-0.24-0.04v0c-0.327 0-0.71 0.16-1.15 0.48-0.44 0.327-0.79 0.59-1.05 0.79v0c-0.553 0.387-1.113 0.743-1.68 1.07-0.573 0.327-1.07 0.783-1.49 1.37v0c-1.307 0.553-2.543 1.197-3.71 1.93-1.173 0.727-2.443 1.303-3.81 1.73v0c-0.52 0.553-1.13 0.983-1.83 1.29-0.7 0.313-1.377 0.647-2.03 1v0 0.15c0 0.26 0.097 0.513 0.29 0.76 0.2 0.24 0.43 0.45 0.69 0.63 0.26 0.18 0.543 0.303 0.85 0.37 0.307 0.067 0.577 0.067 0.81 0v0c0.647 0.587 1.393 1.057 2.24 1.41 0.847 0.36 1.727 0.687 2.64 0.98 0.913 0.293 1.807 0.603 2.68 0.93 0.88 0.327 1.697 0.733 2.45 1.22v0h1.17c0.747 0.653 1.633 1.14 2.66 1.46 1.027 0.327 2.01 0.62 2.95 0.88v0c0.393 0.36 0.89 0.63 1.49 0.81 0.607 0.18 1.187 0.27 1.74 0.27v0h0.29c0.127 0 0.24-0.017 0.34-0.05v0 0.1c0 0.16 0.05 0.263 0.15 0.31 0.093 0.053 0.197 0.087 0.31 0.1 0.12 0.02 0.237 0.053 0.35 0.1 0.113 0.047 0.2 0.12 0.26 0.22v0h0.49c0.687 0 1.34 0.137 1.96 0.41 0.613 0.28 1.263 0.42 1.95 0.42v0c0.293 0 0.52-0.033 0.68-0.1v0c0.2 0.067 0.347 0.197 0.44 0.39 0.1 0.193 0.23 0.357 0.39 0.49v0c0.227-0.033 0.44-0.057 0.64-0.07 0.193-0.02 0.387-0.03 0.58-0.03v0c0.72 0 1.39 0.083 2.01 0.25 0.613 0.16 1.247 0.403 1.9 0.73v0c1.04-0.46 2.067-0.833 3.08-1.12 1.007-0.293 2.08-0.44 3.22-0.44v0 0.09c0 0.393 0.107 0.76 0.32 1.1 0.207 0.34 0.393 0.69 0.56 1.05zM171.83-36.96v0c0-0.393-0.073-0.703-0.22-0.93-0.147-0.227-0.337-0.43-0.57-0.61-0.227-0.18-0.46-0.35-0.7-0.51-0.247-0.167-0.467-0.38-0.66-0.64v0c-0.847-0.26-1.677-0.553-2.49-0.88-0.813-0.327-1.643-0.603-2.49-0.83v0c-0.427-0.093-0.85-0.183-1.27-0.27-0.427-0.08-0.85-0.12-1.27-0.12v0h-1.08c-0.193-0.033-0.397-0.073-0.61-0.12-0.207-0.047-0.41-0.087-0.61-0.12v0c-0.453-0.067-0.9-0.117-1.34-0.15-0.44-0.033-0.887-0.05-1.34-0.05v0c-0.847 0-1.693 0.033-2.54 0.1v0l-2.54 0.2c-0.36 0.027-0.733 0.04-1.12 0.04-0.393 0-0.753 0.033-1.08 0.1v0c-0.16 0.033-0.387 0.107-0.68 0.22-0.293 0.113-0.603 0.227-0.93 0.34-0.327 0.113-0.643 0.237-0.95 0.37-0.307 0.127-0.577 0.223-0.81 0.29v0c0.033 0.227 0.05 0.457 0.05 0.69v0 0.63c0 0.487-0.017 0.977-0.05 1.47-0.033 0.487-0.097 0.973-0.19 1.46v0c-0.033 0.193-0.083 0.39-0.15 0.59-0.067 0.193-0.117 0.387-0.15 0.58v0c-0.06 0.293-0.09 0.62-0.09 0.98v0 0.93c-0.067 0.747-0.117 1.477-0.15 2.19-0.033 0.72-0.083 1.453-0.15 2.2v0c-0.193 2.147-0.397 4.28-0.61 6.4-0.207 2.113-0.343 4.243-0.41 6.39v0c1.073-0.227 2.1-0.567 3.08-1.02 0.973-0.453 1.933-0.95 2.88-1.49 0.94-0.54 1.883-1.07 2.83-1.59 0.94-0.52 1.933-0.96 2.98-1.32v0c0.26-0.353 0.577-0.643 0.95-0.87 0.373-0.233 0.69-0.527 0.95-0.88v0c0.327 0 0.57-0.073 0.73-0.22 0.167-0.147 0.38-0.253 0.64-0.32v0c1.56-1.367 3.153-2.653 4.78-3.86 1.627-1.2 3.19-2.487 4.69-3.86v0c0.133-0.453 0.353-0.9 0.66-1.34 0.307-0.44 0.607-0.887 0.9-1.34 0.293-0.453 0.553-0.91 0.78-1.37 0.233-0.453 0.35-0.94 0.35-1.46zM227.88-28.66v0c0 0.52-0.09 1.057-0.27 1.61-0.18 0.553-0.4 1.057-0.66 1.51v0c-0.42 0.067-0.8 0.213-1.14 0.44-0.347 0.227-0.617 0.373-0.81 0.44v0c-0.42 0.067-0.917 0.093-1.49 0.08-0.567-0.02-1.08-0.013-1.54 0.02v0c-0.88 0.067-1.75 0.163-2.61 0.29-0.86 0.133-1.713 0.297-2.56 0.49v0c-0.067 0-0.133 0.01-0.2 0.03-0.067 0.013-0.1 0.053-0.1 0.12v0c0 0.06 0.017 0.123 0.05 0.19 0.033 0.067 0.05 0.133 0.05 0.2v0c0 0.093-0.097 0.14-0.29 0.14v0c-0.36 0-0.603-0.113-0.73-0.34v0c-1.047 0.26-2.09 0.53-3.13 0.81-1.04 0.273-2.08 0.54-3.12 0.8v0c-0.527 0.1-1.04 0.2-1.54 0.3-0.507 0.093-1.02 0.223-1.54 0.39v0c-0.26 0.067-0.52 0.18-0.78 0.34v0l-0.78 0.49c-0.167-0.033-0.313-0.06-0.44-0.08-0.133-0.013-0.263-0.02-0.39-0.02v0c-0.553 0-1.14 0.107-1.76 0.32-0.62 0.207-1.157 0.49-1.61 0.85v0h-0.34c-0.327 0-0.557-0.047-0.69-0.14v0c-0.293-0.033-0.47 0.053-0.53 0.26-0.067 0.213-0.183 0.403-0.35 0.57v0c-1.107 0.093-2.197 0.287-3.27 0.58-1.073 0.293-2.13 0.61-3.17 0.95-1.04 0.347-2.09 0.69-3.15 1.03-1.06 0.34-2.127 0.607-3.2 0.8v0c-0.127 0.653-0.19 1.403-0.19 2.25v0c0 0.653 0.057 1.403 0.17 2.25 0.113 0.847 0.363 1.563 0.75 2.15v0 0.09c0 0.167-0.063 0.28-0.19 0.34-0.133 0.067-0.2 0.183-0.2 0.35v0c0 0.847 0.09 1.643 0.27 2.39 0.18 0.747 0.367 1.48 0.56 2.2 0.2 0.713 0.387 1.427 0.56 2.14 0.18 0.72 0.27 1.453 0.27 2.2v0c0 0.193-0.007 0.38-0.02 0.56-0.02 0.18-0.043 0.367-0.07 0.56v0c0.093 0.293 0.253 0.54 0.48 0.74 0.233 0.193 0.43 0.42 0.59 0.68v0c0.033 0.167 0.05 0.313 0.05 0.44v0 0.49c0 0.553-0.067 1.04-0.2 1.46-0.127 0.427-0.29 0.827-0.49 1.2-0.193 0.373-0.403 0.747-0.63 1.12-0.227 0.373-0.437 0.79-0.63 1.25v0c-0.327 0.067-0.59 0.1-0.79 0.1v0c-0.487 0-0.883-0.13-1.19-0.39-0.313-0.267-0.583-0.587-0.81-0.96-0.227-0.373-0.447-0.753-0.66-1.14-0.207-0.393-0.457-0.72-0.75-0.98v0c0.027-0.167 0.05-0.313 0.07-0.44 0.013-0.133 0.02-0.28 0.02-0.44v0c0-0.653-0.103-1.287-0.31-1.9-0.213-0.62-0.45-1.207-0.71-1.76v0c-0.033-1.107-0.147-2.197-0.34-3.27-0.2-1.08-0.477-2.14-0.83-3.18v0c0.06-0.387 0.107-0.767 0.14-1.14 0.033-0.38 0.05-0.747 0.05-1.1v0c0-0.947-0.047-1.893-0.14-2.84-0.1-0.94-0.117-1.883-0.05-2.83v0c-0.1-0.16-0.2-0.297-0.3-0.41-0.093-0.113-0.173-0.253-0.24-0.42v0h-0.2c-0.487 0-0.957 0.04-1.41 0.12-0.46 0.087-0.917 0.13-1.37 0.13v0c-0.16 0-0.307-0.01-0.44-0.03-0.127-0.013-0.273-0.037-0.44-0.07v0c-0.36-0.36-0.637-0.767-0.83-1.22-0.193-0.46-0.29-0.933-0.29-1.42v0c0-0.713 0.193-1.363 0.58-1.95v0c0.82-0.193 1.627-0.43 2.42-0.71 0.8-0.273 1.573-0.607 2.32-1v0c0.1-0.487 0.157-0.973 0.17-1.46 0.02-0.493 0.19-0.95 0.51-1.37v0c-0.093-0.26-0.247-0.497-0.46-0.71-0.213-0.213-0.32-0.467-0.32-0.76v0c0-0.16 0.033-0.37 0.1-0.63v0c0.327-0.36 0.553-0.817 0.68-1.37 0.133-0.553 0.25-1.14 0.35-1.76 0.093-0.613 0.197-1.23 0.31-1.85 0.113-0.62 0.317-1.173 0.61-1.66v0c-0.06-0.26-0.107-0.547-0.14-0.86-0.033-0.307-0.05-0.59-0.05-0.85v0c0-0.393 0.023-0.793 0.07-1.2 0.053-0.407 0.143-0.79 0.27-1.15v0c-0.36-0.42-0.653-0.913-0.88-1.48-0.227-0.573-0.34-1.137-0.34-1.69v0c0-1.073 0.52-1.757 1.56-2.05v0c-0.033-0.133-0.057-0.247-0.07-0.34-0.02-0.1-0.03-0.197-0.03-0.29v0c0-0.293 0.083-0.57 0.25-0.83 0.16-0.267 0.29-0.53 0.39-0.79v0c-0.16-0.42-0.24-0.777-0.24-1.07v0c0-0.26 0.047-0.497 0.14-0.71 0.1-0.213 0.183-0.45 0.25-0.71v0c0.093-0.32 0.167-0.61 0.22-0.87 0.047-0.267 0.133-0.497 0.26-0.69 0.133-0.193 0.307-0.34 0.52-0.44 0.207-0.093 0.54-0.14 1-0.14v0c0.713 0 1.403 0.217 2.07 0.65 0.667 0.44 1.18 0.937 1.54 1.49v0c0.36-0.027 0.677-0.1 0.95-0.22 0.28-0.113 0.54-0.217 0.78-0.31 0.247-0.1 0.51-0.19 0.79-0.27 0.273-0.08 0.607-0.103 1-0.07v0c0.093-0.233 0.263-0.39 0.51-0.47 0.247-0.08 0.5-0.143 0.76-0.19 0.26-0.053 0.503-0.127 0.73-0.22 0.227-0.1 0.373-0.28 0.44-0.54v0c0.127 0.1 0.273 0.15 0.44 0.15v0c0.16 0 0.323-0.027 0.49-0.08 0.16-0.047 0.337-0.07 0.53-0.07v0c0.2 0 0.363 0.063 0.49 0.19v0c0.847-0.453 1.75-0.787 2.71-1 0.96-0.207 1.913-0.327 2.86-0.36v0c2.247-1.24 4.613-2.087 7.1-2.54 2.493-0.46 4.993-0.69 7.5-0.69v0c0.353 0 0.703-0.007 1.05-0.02 0.34-0.013 0.673 0.01 1 0.07v0c0.36 0.067 0.757 0.183 1.19 0.35 0.44 0.16 0.88 0.353 1.32 0.58 0.44 0.227 0.857 0.48 1.25 0.76 0.387 0.273 0.71 0.523 0.97 0.75v0c0.267 0.587 0.4 1.157 0.4 1.71v0c0 0.26-0.017 0.513-0.05 0.76-0.033 0.247-0.05 0.5-0.05 0.76v0c0 0.387 0.08 0.827 0.24 1.32v0c-0.093-0.033-0.257-0.05-0.49-0.05v0c-0.293 0-0.537 0.063-0.73 0.19-0.193 0.133-0.373 0.28-0.54 0.44-0.16 0.167-0.313 0.313-0.46 0.44-0.147 0.133-0.283 0.2-0.41 0.2v0c-0.267 0-0.487-0.05-0.66-0.15-0.18-0.1-0.36-0.207-0.54-0.32-0.18-0.113-0.367-0.21-0.56-0.29-0.2-0.08-0.43-0.103-0.69-0.07v0-0.2c0-0.36-0.113-0.597-0.34-0.71-0.227-0.113-0.407-0.283-0.54-0.51v0c-0.487-0.033-0.967-0.097-1.44-0.19-0.467-0.1-0.947-0.15-1.44-0.15v0c-0.647 0-1.15 0.227-1.51 0.68v0c-0.16-0.067-0.297-0.147-0.41-0.24-0.12-0.1-0.277-0.133-0.47-0.1v0h-0.15c-1.753 0-3.477 0.187-5.17 0.56-1.693 0.373-3.37 0.83-5.03 1.37-1.66 0.533-3.32 1.11-4.98 1.73-1.66 0.62-3.32 1.157-4.98 1.61v0c-0.393 0.527-0.8 0.91-1.22 1.15-0.427 0.247-0.843 0.45-1.25 0.61-0.407 0.167-0.803 0.33-1.19 0.49-0.393 0.16-0.727 0.42-1 0.78-0.28 0.36-0.493 0.857-0.64 1.49-0.147 0.633-0.187 1.503-0.12 2.61v0c-0.167 0.2-0.263 0.413-0.29 0.64-0.033 0.227-0.067 0.447-0.1 0.66-0.033 0.207-0.083 0.41-0.15 0.61-0.067 0.193-0.18 0.37-0.34 0.53v0c0.067 0.327 0.117 0.653 0.15 0.98 0.033 0.327 0.05 0.653 0.05 0.98v0c0 1.367-0.23 2.7-0.69 4v0c0.167 0.26 0.25 0.553 0.25 0.88v0c0 0.36-0.05 0.687-0.15 0.98-0.1 0.293-0.15 0.617-0.15 0.97v0c0 0.36 0.067 0.653 0.2 0.88v0c0.193 0 0.307 0.067 0.34 0.2v0h0.29c0.587 0 1.093-0.147 1.52-0.44 0.42-0.293 0.873-0.44 1.36-0.44v0c0.1 0 0.217 0.033 0.35 0.1 0.127 0.06 0.24 0.09 0.34 0.09v0c0.227 0 0.323-0.08 0.29-0.24-0.033-0.16 0.047-0.273 0.24-0.34v0l1.76-0.3c1.107-0.193 2.157-0.427 3.15-0.7 0.993-0.28 1.98-0.697 2.96-1.25v0c0.227 0.1 0.487 0.15 0.78 0.15v0c0.26 0 0.537-0.04 0.83-0.12 0.293-0.087 0.57-0.13 0.83-0.13v0c0.227 0 0.403 0.033 0.53 0.1v0c0.2-0.127 0.447-0.233 0.74-0.32 0.293-0.08 0.457-0.267 0.49-0.56v0h0.09c0.133 0 0.233 0.033 0.3 0.1 0.06 0.067 0.157 0.1 0.29 0.1v0h0.19c0.687-0.327 1.307-0.57 1.86-0.73v0c0.913-0.233 1.89-0.437 2.93-0.61 1.04-0.18 1.967-0.5 2.78-0.96v0c0.947 0 1.867-0.153 2.76-0.46 0.893-0.307 1.797-0.46 2.71-0.46v0c0.427 0 0.817 0.063 1.17 0.19v0c0.327-0.227 0.71-0.39 1.15-0.49 0.44-0.093 0.807-0.27 1.1-0.53v0c0.193 0.027 0.397 0.05 0.61 0.07 0.213 0.013 0.433 0.02 0.66 0.02v0c0.973 0 1.91-0.137 2.81-0.41 0.893-0.28 1.81-0.483 2.75-0.61v0c0.233 0.26 0.39 0.527 0.47 0.8 0.08 0.28 0.12 0.567 0.12 0.86zM272.61-53.37v0c0 0.293-0.01 0.587-0.03 0.88-0.013 0.293-0.037 0.57-0.07 0.83v0c-0.1 0.16-0.287 0.227-0.56 0.2-0.28-0.033-0.5-0.05-0.66-0.05v0c-0.167 0-0.307 0.023-0.42 0.07-0.113 0.047-0.17 0.153-0.17 0.32v0c0 0.193 0.017 0.323 0.05 0.39v0c-0.26-0.033-0.537-0.067-0.83-0.1-0.293-0.033-0.553-0.13-0.78-0.29v0c-0.453 0.093-0.883 0.223-1.29 0.39-0.407 0.16-0.807 0.337-1.2 0.53-0.393 0.2-0.8 0.38-1.22 0.54-0.427 0.167-0.867 0.263-1.32 0.29v0c-0.293 0.327-0.667 0.573-1.12 0.74-0.46 0.16-0.933 0.307-1.42 0.44-0.487 0.127-0.94 0.28-1.36 0.46-0.427 0.18-0.77 0.45-1.03 0.81v0c-0.713 0.06-1.397 0.237-2.05 0.53-0.653 0.293-1.297 0.603-1.93 0.93-0.633 0.327-1.277 0.637-1.93 0.93-0.653 0.293-1.353 0.487-2.1 0.58v0c-0.193 0.2-0.43 0.363-0.71 0.49-0.273 0.133-0.557 0.257-0.85 0.37-0.293 0.113-0.57 0.237-0.83 0.37-0.26 0.127-0.473 0.303-0.64 0.53v0h-0.09c-0.133 0-0.233-0.033-0.3-0.1-0.06-0.06-0.157-0.09-0.29-0.09v0c-0.1 0-0.163 0.017-0.19 0.05v0c-0.787 0.353-1.57 0.727-2.35 1.12-0.78 0.387-1.593 0.76-2.44 1.12v0c-1.66 0.687-3.337 1.353-5.03 2-1.693 0.653-3.32 1.453-4.88 2.4v0c-0.36 1.3-0.653 2.627-0.88 3.98-0.227 1.347-0.633 2.64-1.22 3.88v0 2.29c-0.327 0.62-0.54 1.303-0.64 2.05-0.093 0.753-0.14 1.47-0.14 2.15v0c0 0.26 0.007 0.497 0.02 0.71 0.02 0.213 0.03 0.433 0.03 0.66v0c0.94-0.26 1.86-0.553 2.76-0.88 0.893-0.327 1.797-0.62 2.71-0.88v0c0.453-0.16 0.917-0.273 1.39-0.34 0.467-0.067 0.93-0.18 1.39-0.34v0c0.36-0.1 0.733-0.24 1.12-0.42 0.393-0.18 0.767-0.35 1.12-0.51v0c0.98-0.42 1.983-0.793 3.01-1.12 1.027-0.327 2.077-0.573 3.15-0.74v0c0.327-0.26 0.683-0.503 1.07-0.73 0.393-0.227 0.783-0.34 1.17-0.34v0c0.293 0 0.54 0.05 0.74 0.15v0c0.553-0.327 1.203-0.62 1.95-0.88 0.747-0.26 1.447-0.357 2.1-0.29v0c0.16-0.233 0.353-0.39 0.58-0.47 0.233-0.08 0.48-0.12 0.74-0.12v0c0.127 0 0.247 0.007 0.36 0.02 0.113 0.02 0.253 0.03 0.42 0.03v0c0.327-0.227 0.683-0.39 1.07-0.49 0.393-0.1 0.783-0.18 1.17-0.24 0.393-0.067 0.777-0.157 1.15-0.27 0.373-0.113 0.707-0.3 1-0.56v0c0.46 0.027 0.827 0.157 1.1 0.39 0.28 0.227 0.517 0.503 0.71 0.83 0.193 0.32 0.357 0.66 0.49 1.02 0.127 0.36 0.29 0.703 0.49 1.03v0c-0.067 0.26-0.167 0.463-0.3 0.61-0.127 0.147-0.273 0.283-0.44 0.41-0.16 0.133-0.307 0.263-0.44 0.39-0.127 0.133-0.207 0.313-0.24 0.54v0c-1.14 0-2.24 0.163-3.3 0.49-1.053 0.327-2.093 0.7-3.12 1.12-1.027 0.427-2.07 0.827-3.13 1.2-1.053 0.373-2.133 0.61-3.24 0.71v0c-0.167 0.16-0.38 0.29-0.64 0.39v0l-0.73 0.24c-0.227 0.067-0.44 0.157-0.64 0.27-0.193 0.113-0.34 0.283-0.44 0.51v0c-0.193-0.093-0.403-0.14-0.63-0.14v0c-0.553 0-1.09 0.143-1.61 0.43-0.52 0.293-1.107 0.44-1.76 0.44v0c-0.26 0-0.44-0.013-0.54-0.04v0c-0.16 0.287-0.393 0.497-0.7 0.63-0.313 0.133-0.64 0.24-0.98 0.32-0.34 0.08-0.667 0.183-0.98 0.31-0.307 0.133-0.543 0.363-0.71 0.69v0c-0.093-0.033-0.207-0.05-0.34-0.05v0h-0.29c-0.52 0-1.113 0.09-1.78 0.27-0.667 0.18-1.147 0.513-1.44 1v0c-0.26-0.067-0.49-0.1-0.69-0.1v0c-0.453 0-0.86 0.09-1.22 0.27-0.353 0.18-0.71 0.383-1.07 0.61v0l-1.08 0.68c-0.353 0.233-0.743 0.397-1.17 0.49v0c-0.847 1.207-1.433 2.59-1.76 4.15-0.32 1.567-0.553 3.197-0.7 4.89-0.147 1.687-0.287 3.37-0.42 5.05-0.127 1.673-0.387 3.21-0.78 4.61v0c0.193 0.52 0.34 1.073 0.44 1.66 0.1 0.587 0.18 1.183 0.24 1.79 0.067 0.6 0.133 1.21 0.2 1.83 0.067 0.613 0.18 1.197 0.34 1.75v0c0.167 0.687 0.483 1.3 0.95 1.84 0.473 0.533 0.807 1.143 1 1.83v0c0.167 0.033 0.34 0.057 0.52 0.07 0.18 0.013 0.367 0.02 0.56 0.02v0c1.173 0 2.207-0.227 3.1-0.68 0.893-0.453 1.73-1.013 2.51-1.68 0.787-0.667 1.543-1.383 2.27-2.15 0.733-0.767 1.523-1.443 2.37-2.03v0h0.93c0.227-0.26 0.423-0.537 0.59-0.83 0.16-0.293 0.337-0.57 0.53-0.83 0.2-0.26 0.43-0.48 0.69-0.66 0.26-0.18 0.583-0.3 0.97-0.36v0c0.1-0.493 0.33-0.87 0.69-1.13 0.353-0.26 0.597-0.65 0.73-1.17v0c0.067 0.033 0.147 0.05 0.24 0.05v0c0.26 0 0.457-0.067 0.59-0.2v0l0.73-0.68c0.26-0.26 0.547-0.513 0.86-0.76 0.307-0.24 0.607-0.473 0.9-0.7v0c0.947-0.687 1.89-1.363 2.83-2.03 0.947-0.667 1.81-1.44 2.59-2.32v0c0.033 0.033 0.083 0.05 0.15 0.05v0c0.26 0 0.437-0.08 0.53-0.24 0.1-0.167 0.33-0.217 0.69-0.15v0c0.193-0.293 0.37-0.593 0.53-0.9 0.167-0.313 0.297-0.65 0.39-1.01v0l1.57 0.2c0.52 0.067 1.04 0.1 1.56 0.1v0c0.16 0 0.313-0.01 0.46-0.03 0.147-0.013 0.287-0.053 0.42-0.12v0c0.387 0.62 0.597 1.28 0.63 1.98 0.033 0.7 0.117 1.39 0.25 2.07v0c-0.067 0-0.107-0.007-0.12-0.02-0.02-0.02-0.063-0.03-0.13-0.03v0c-0.16 0-0.313 0.06-0.46 0.18-0.147 0.113-0.3 0.25-0.46 0.41v0l-0.49 0.49c-0.167 0.16-0.313 0.29-0.44 0.39v0c-0.36 0.227-0.737 0.43-1.13 0.61-0.387 0.18-0.76 0.367-1.12 0.56-0.36 0.193-0.7 0.43-1.02 0.71-0.327 0.273-0.587 0.623-0.78 1.05v0c-0.653 0.26-1.28 0.537-1.88 0.83-0.607 0.293-1.187 0.603-1.74 0.93v0c-0.16 0.16-0.307 0.323-0.44 0.49-0.127 0.16-0.223 0.337-0.29 0.53v0c-0.88 0.293-1.603 0.733-2.17 1.32-0.573 0.587-1.153 1.223-1.74 1.91v0l-0.05-0.05c-0.227 0-0.363 0.08-0.41 0.24-0.047 0.16-0.233 0.21-0.56 0.15v0c-0.62 0.68-1.273 1.313-1.96 1.9-0.68 0.587-1.377 1.173-2.09 1.76-0.72 0.587-1.437 1.18-2.15 1.78-0.72 0.6-1.39 1.243-2.01 1.93v0c-0.42 0.133-0.827 0.297-1.22 0.49-0.387 0.193-0.677 0.487-0.87 0.88v0h-0.15c-0.36 0-0.613 0.08-0.76 0.24-0.147 0.167-0.317 0.38-0.51 0.64v0c-0.687 0.16-1.387 0.337-2.1 0.53-0.713 0.2-1.447 0.3-2.2 0.3v0c-0.52 0-1.017-0.1-1.49-0.3-0.473-0.193-0.927-0.443-1.36-0.75-0.44-0.313-0.847-0.647-1.22-1-0.38-0.36-0.73-0.703-1.05-1.03v0c-0.2-0.653-0.453-1.33-0.76-2.03-0.313-0.7-0.47-1.373-0.47-2.02v0c0-0.167 0.027-0.323 0.08-0.47 0.047-0.147 0.07-0.283 0.07-0.41v0c0-0.227-0.073-0.323-0.22-0.29-0.147 0.027-0.253-0.057-0.32-0.25v0c-0.06-0.327-0.1-0.693-0.12-1.1-0.013-0.407-0.053-0.787-0.12-1.14v0c-0.1-0.753-0.223-1.52-0.37-2.3-0.147-0.78-0.3-1.543-0.46-2.29v0c0.133-0.067 0.24-0.173 0.32-0.32 0.08-0.147 0.17-0.287 0.27-0.42v0c-0.1-0.26-0.19-0.543-0.27-0.85-0.08-0.313-0.12-0.63-0.12-0.95v0c0-0.653 0.243-1.143 0.73-1.47v0c0-0.227-0.057-0.397-0.17-0.51-0.113-0.113-0.17-0.3-0.17-0.56v0c0-0.067 0.023-0.253 0.07-0.56 0.047-0.313 0.11-0.663 0.19-1.05 0.087-0.393 0.16-0.77 0.22-1.13 0.067-0.353 0.117-0.597 0.15-0.73v0c0.227-1.5 0.423-2.973 0.59-4.42 0.16-1.447 0.387-2.903 0.68-4.37v0c-0.327-0.26-0.743-0.463-1.25-0.61-0.5-0.147-0.847-0.35-1.04-0.61v0c-0.167-0.227-0.3-0.52-0.4-0.88-0.093-0.36-0.14-0.67-0.14-0.93v0c0-0.94 0.373-1.697 1.12-2.27 0.747-0.567 1.543-0.9 2.39-1v0c0.427-1.14 0.747-2.303 0.96-3.49 0.207-1.187 0.377-2.383 0.51-3.59v0l0.39-3.66c0.127-1.24 0.32-2.46 0.58-3.66v0h-0.29c-0.647 0-1.28 0.097-1.9 0.29-0.62 0.193-1.257 0.29-1.91 0.29v0h-0.09c-0.947-0.747-1.42-1.64-1.42-2.68v0c0-0.62 0.13-1.24 0.39-1.86v0c0.52-0.193 0.993-0.453 1.42-0.78 0.42-0.327 0.85-0.66 1.29-1 0.44-0.34 0.887-0.64 1.34-0.9 0.46-0.26 0.967-0.423 1.52-0.49v0c0.06-0.947 0.223-1.89 0.49-2.83 0.26-0.947 0.39-1.89 0.39-2.83v0c0-0.2-0.01-0.397-0.03-0.59-0.013-0.193-0.053-0.39-0.12-0.59v0c0.227-0.293 0.38-0.6 0.46-0.92 0.087-0.327 0.13-0.67 0.13-1.03v0c0-0.393-0.027-0.777-0.08-1.15-0.047-0.373-0.103-0.74-0.17-1.1v0c0.293-0.127 0.52-0.263 0.68-0.41 0.167-0.147 0.323-0.287 0.47-0.42 0.147-0.127 0.333-0.24 0.56-0.34 0.227-0.093 0.553-0.14 0.98-0.14v0c0.613 0 1.14 0.12 1.58 0.36 0.44 0.247 0.823 0.563 1.15 0.95 0.327 0.393 0.613 0.833 0.86 1.32 0.24 0.487 0.473 0.977 0.7 1.47v0c-0.06 0.353-0.207 0.613-0.44 0.78-0.227 0.16-0.42 0.37-0.58 0.63v0c0.067 0.52 0.13 1.017 0.19 1.49 0.067 0.473 0.067 0.97 0 1.49v0c0.327 0.167 0.637 0.25 0.93 0.25v0c0.487 0 0.933-0.13 1.34-0.39 0.407-0.267 0.693-0.627 0.86-1.08v0h0.1c0.093 0 0.18 0.033 0.26 0.1 0.087 0.067 0.193 0.1 0.32 0.1v0h0.2c0.353-0.327 0.743-0.58 1.17-0.76 0.42-0.18 0.86-0.35 1.32-0.51 0.453-0.167 0.9-0.34 1.34-0.52 0.44-0.173 0.857-0.407 1.25-0.7v0c0.193 0.093 0.403 0.14 0.63 0.14v0c0.327 0 0.643-0.063 0.95-0.19 0.313-0.133 0.617-0.273 0.91-0.42 0.293-0.147 0.61-0.283 0.95-0.41 0.34-0.133 0.707-0.2 1.1-0.2v0c0.06 0 0.14 0.01 0.24 0.03 0.1 0.013 0.18 0.02 0.24 0.02v0c0.233 0 0.367-0.08 0.4-0.24 0.027-0.167 0.027-0.313 0-0.44v0c1.04-0.26 1.943-0.563 2.71-0.91 0.76-0.34 1.613-0.737 2.56-1.19v0c0-0.033 0.033-0.05 0.1-0.05v0c0.093 0 0.157 0.05 0.19 0.15 0.033 0.093 0.05 0.173 0.05 0.24v0c0.193-0.1 0.3-0.263 0.32-0.49 0.013-0.227 0.087-0.42 0.22-0.58v0c0.127 0.027 0.303 0.04 0.53 0.04v0c0.293 0 0.597-0.063 0.91-0.19 0.307-0.133 0.607-0.28 0.9-0.44 0.293-0.16 0.587-0.307 0.88-0.44 0.293-0.133 0.587-0.2 0.88-0.2v0c0.26 0 0.47 0.067 0.63 0.2v0c0.2-0.1 0.397-0.24 0.59-0.42 0.193-0.173 0.403-0.26 0.63-0.26v0c0.067 0 0.127 0.013 0.18 0.04 0.047 0.033 0.103 0.067 0.17 0.1v0c0.16-0.16 0.313-0.29 0.46-0.39 0.147-0.093 0.22-0.257 0.22-0.49v0c1.207-0.127 2.32-0.393 3.34-0.8 1.027-0.407 2.013-0.953 2.96-1.64v0c0.36 0.067 0.71 0.14 1.05 0.22 0.34 0.08 0.69 0.12 1.05 0.12v0c0.193 0.36 0.373 0.72 0.54 1.08 0.16 0.36 0.517 0.523 1.07 0.49v0c0.033 0.16 0.057 0.337 0.07 0.53 0.02 0.2 0.03 0.38 0.03 0.54zM319.09-2.93l0.05 0.15c0 0.26-0.09 0.437-0.27 0.53-0.18 0.1-0.22 0.33-0.12 0.69v0c-0.26 0.033-0.487 0.163-0.68 0.39-0.2 0.227-0.43 0.34-0.69 0.34v0c-0.16 0-0.29-0.08-0.39-0.24v0c-0.067 0.227-0.187 0.387-0.36 0.48-0.18 0.1-0.37 0.183-0.57 0.25-0.193 0.067-0.387 0.147-0.58 0.24-0.193 0.1-0.323 0.247-0.39 0.44v0h-0.25c-0.387 0-0.687 0.163-0.9 0.49-0.213 0.327-0.467 0.49-0.76 0.49v0c-0.093 0-0.157-0.017-0.19-0.05v0c-0.167 0.033-0.233 0.14-0.2 0.32 0.033 0.18-0.013 0.3-0.14 0.36v0h-0.25c-0.847 0-1.71 0.18-2.59 0.54-0.873 0.36-1.76 0.767-2.66 1.22-0.893 0.453-1.803 0.883-2.73 1.29-0.927 0.413-1.863 0.683-2.81 0.81v0c-0.193 0.193-0.43 0.347-0.71 0.46-0.273 0.12-0.573 0.21-0.9 0.27-0.327 0.067-0.643 0.14-0.95 0.22-0.313 0.08-0.583 0.22-0.81 0.42v0c-0.813 0.067-1.627 0.213-2.44 0.44-0.813 0.227-1.62 0.447-2.42 0.66-0.793 0.207-1.607 0.383-2.44 0.53-0.827 0.147-1.663 0.19-2.51 0.13v0c-0.26 0.193-0.547 0.347-0.86 0.46-0.307 0.113-0.59 0.267-0.85 0.46v0c-1.333-0.193-2.66-0.34-3.98-0.44-1.32-0.093-2.613-0.32-3.88-0.68v0c0-0.1-0.033-0.167-0.1-0.2-0.067-0.027-0.14-0.05-0.22-0.07-0.08-0.013-0.153-0.047-0.22-0.1-0.067-0.047-0.067-0.133 0-0.26v0c-0.293 0.093-0.553 0.14-0.78 0.14v0c-0.327 0-0.643-0.08-0.95-0.24-0.313-0.167-0.64-0.347-0.98-0.54-0.34-0.193-0.69-0.38-1.05-0.56-0.36-0.18-0.75-0.27-1.17-0.27v0c-0.26-0.26-0.497-0.52-0.71-0.78-0.213-0.26-0.367-0.587-0.46-0.98v0c-0.133-0.033-0.273-0.033-0.42 0-0.147 0.033-0.267 0.05-0.36 0.05v0c-0.2 0-0.3-0.063-0.3-0.19v0c-0.68-0.493-1.167-1.017-1.46-1.57-0.293-0.553-0.62-1.187-0.98-1.9v0c-0.1-0.227-0.223-0.413-0.37-0.56-0.14-0.147-0.243-0.317-0.31-0.51v0c-0.133-0.327-0.217-0.67-0.25-1.03-0.033-0.36-0.057-0.71-0.07-1.05-0.013-0.34-0.063-0.683-0.15-1.03-0.08-0.34-0.233-0.657-0.46-0.95v0c0.067-1.233 0.203-2.47 0.41-3.71 0.213-1.233 0.483-2.47 0.81-3.71v0c0.133-0.553 0.28-1.09 0.44-1.61 0.16-0.52 0.307-1.057 0.44-1.61v0c0.033-0.193 0.09-0.333 0.17-0.42 0.08-0.08 0.153-0.137 0.22-0.17v0l0.2-0.14c0.06-0.067 0.107-0.167 0.14-0.3v0l0.39-1.66c0.26-1.073 0.603-2.113 1.03-3.12 0.42-1.013 0.99-1.943 1.71-2.79v0c0.06-0.813 0.247-1.587 0.56-2.32 0.307-0.727 0.657-1.44 1.05-2.14 0.387-0.7 0.777-1.393 1.17-2.08 0.393-0.68 0.703-1.413 0.93-2.2v0l-0.05-0.09c0-0.133 0.073-0.207 0.22-0.22 0.147-0.02 0.253-0.03 0.32-0.03v0c0.027-0.52 0.147-0.967 0.36-1.34 0.213-0.373 0.443-0.723 0.69-1.05 0.24-0.327 0.467-0.677 0.68-1.05 0.213-0.373 0.337-0.82 0.37-1.34v0c0.613-0.36 1.14-0.81 1.58-1.35 0.44-0.533 0.863-1.087 1.27-1.66 0.407-0.567 0.84-1.12 1.3-1.66 0.453-0.533 1.007-0.963 1.66-1.29v0c0.16-0.193 0.207-0.47 0.14-0.83v0c1.013-0.747 2.057-1.413 3.13-2 1.073-0.587 2.083-1.27 3.03-2.05v0h1.75c0.427-0.327 0.9-0.49 1.42-0.49v0c0.387 0 0.77 0.08 1.15 0.24 0.373 0.167 0.73 0.353 1.07 0.56 0.34 0.213 0.69 0.427 1.05 0.64 0.36 0.213 0.717 0.367 1.07 0.46v0c0.36 0.493 0.613 1.057 0.76 1.69 0.147 0.633 0.303 1.227 0.47 1.78v0c-0.293 0.88-0.473 1.783-0.54 2.71-0.067 0.927-0.18 1.847-0.34 2.76v0c-0.233 0.26-0.43 0.543-0.59 0.85-0.16 0.313-0.33 0.623-0.51 0.93-0.18 0.307-0.367 0.6-0.56 0.88-0.2 0.273-0.46 0.493-0.78 0.66v0c-0.267 0.947-0.677 1.697-1.23 2.25-0.553 0.553-1.09 1.203-1.61 1.95v0c-0.487 0.327-1.007 0.49-1.56 0.49v0c-0.453 0-0.86-0.107-1.22-0.32-0.36-0.213-0.687-0.49-0.98-0.83-0.293-0.34-0.527-0.713-0.7-1.12-0.18-0.407-0.32-0.807-0.42-1.2v0c0.227-0.687 0.593-1.273 1.1-1.76 0.507-0.487 1.02-0.973 1.54-1.46 0.52-0.493 0.973-1.017 1.36-1.57 0.393-0.553 0.59-1.22 0.59-2v0c0-0.06-0.007-0.123-0.02-0.19-0.02-0.067-0.03-0.133-0.03-0.2v0c0-0.127 0.05-0.24 0.15-0.34 0.093-0.1 0.19-0.18 0.29-0.24v0l0.29-0.25c0.1-0.093 0.15-0.207 0.15-0.34v0c0-0.133-0.067-0.263-0.2-0.39v0c-1.233 0.1-2.167 0.31-2.8 0.63-0.633 0.327-1.13 0.687-1.49 1.08-0.36 0.387-0.677 0.77-0.95 1.15-0.28 0.373-0.68 0.64-1.2 0.8v0c-0.1 0.26-0.24 0.48-0.42 0.66-0.173 0.18-0.36 0.36-0.56 0.54-0.193 0.18-0.363 0.383-0.51 0.61-0.147 0.227-0.237 0.503-0.27 0.83v0h-0.88c-0.127 0.293-0.313 0.577-0.56 0.85-0.24 0.28-0.483 0.55-0.73 0.81-0.247 0.26-0.46 0.543-0.64 0.85-0.173 0.313-0.23 0.647-0.17 1v0c-0.353 0.133-0.62 0.347-0.8 0.64-0.18 0.293-0.433 0.537-0.76 0.73v0 0.29c0 0.26-0.05 0.507-0.15 0.74-0.093 0.227-0.107 0.47-0.04 0.73v0c-0.393 0.36-0.68 0.807-0.86 1.34-0.18 0.54-0.367 1.037-0.56 1.49v0c-0.453 0.227-0.763 0.537-0.93 0.93-0.16 0.387-0.24 0.843-0.24 1.37v0c-0.487 0.487-0.927 1.053-1.32 1.7-0.393 0.653-0.743 1.323-1.05 2.01-0.307 0.68-0.593 1.38-0.86 2.1-0.26 0.713-0.537 1.38-0.83 2v0 1.41c-0.453 0.527-0.77 1.14-0.95 1.84-0.18 0.7-0.447 1.327-0.8 1.88v0c-0.067 0.353-0.093 0.71-0.08 1.07 0.02 0.36 0.03 0.717 0.03 1.07v0c0 0.393-0.033 0.8-0.1 1.22-0.067 0.427-0.18 0.82-0.34 1.18v0c0.127 0.487 0.223 1.063 0.29 1.73 0.067 0.667 0.18 1.333 0.34 2 0.167 0.667 0.397 1.27 0.69 1.81 0.293 0.533 0.717 0.9 1.27 1.1v0c0.127 0.713 0.443 1.257 0.95 1.63 0.507 0.373 1.083 0.677 1.73 0.91 0.653 0.227 1.32 0.43 2 0.61 0.687 0.18 1.29 0.413 1.81 0.7v0c0.193-0.093 0.42-0.14 0.68-0.14v0c0.26 0 0.497 0.033 0.71 0.1 0.213 0.06 0.45 0.123 0.71 0.19v0c0.453-0.067 1.013-0.1 1.68-0.1 0.673 0 1.35-0.023 2.03-0.07 0.687-0.047 1.323-0.137 1.91-0.27 0.58-0.127 1.05-0.37 1.41-0.73v0c0.227 0 0.383 0.063 0.47 0.19 0.08 0.133 0.233 0.2 0.46 0.2v0c0.227 0 0.567-0.057 1.02-0.17 0.46-0.113 0.933-0.243 1.42-0.39 0.487-0.147 0.95-0.303 1.39-0.47 0.44-0.16 0.757-0.307 0.95-0.44v0c0.1 0.033 0.2 0.05 0.3 0.05v0h0.34c0.453 0 0.877-0.08 1.27-0.24 0.387-0.16 0.81-0.21 1.27-0.15v0c1.493-0.747 3.013-1.39 4.56-1.93 1.547-0.533 3.12-1.013 4.72-1.44v0c0.193-0.293 0.427-0.503 0.7-0.63 0.28-0.133 0.583-0.24 0.91-0.32 0.327-0.08 0.65-0.143 0.97-0.19 0.327-0.053 0.637-0.127 0.93-0.22v0c0.193-0.1 0.363-0.223 0.51-0.37 0.147-0.147 0.337-0.27 0.57-0.37v0c0.227-0.093 0.477-0.157 0.75-0.19 0.28-0.033 0.557-0.073 0.83-0.12 0.28-0.053 0.54-0.127 0.78-0.22 0.247-0.1 0.45-0.263 0.61-0.49v0c0.46 0.193 0.927 0.403 1.4 0.63 0.467 0.233 0.863 0.56 1.19 0.98zM358.79-46.53v0c-0.26 0.16-0.537 0.257-0.83 0.29-0.293 0.033-0.593 0.073-0.9 0.12-0.313 0.053-0.6 0.127-0.86 0.22-0.26 0.1-0.453 0.28-0.58 0.54v0c-0.327-0.327-0.687-0.603-1.08-0.83-0.387-0.227-0.777-0.47-1.17-0.73v0c-0.327 0.093-0.653 0.223-0.98 0.39-0.327 0.16-0.65 0.24-0.97 0.24v0c-0.233 0-0.463-0.08-0.69-0.24v0c-0.26 0.193-0.56 0.347-0.9 0.46-0.34 0.113-0.7 0.22-1.08 0.32-0.373 0.093-0.713 0.223-1.02 0.39-0.307 0.16-0.527 0.403-0.66 0.73v0c-0.067-0.16-0.22-0.21-0.46-0.15-0.247 0.067-0.387-0.013-0.42-0.24v0c-1.04 0.36-2.097 0.67-3.17 0.93-1.073 0.26-2.15 0.537-3.23 0.83-1.073 0.293-2.13 0.617-3.17 0.97-1.04 0.36-2.05 0.8-3.03 1.32v0c-0.033 0.033-0.05 0.083-0.05 0.15v0c0 0.327 0.05 0.637 0.15 0.93 0.1 0.293 0.183 0.57 0.25 0.83v0c-0.587 1.987-0.98 4.003-1.18 6.05-0.193 2.053-0.453 4.073-0.78 6.06v0 0.19c0 0.167 0.067 0.29 0.2 0.37 0.127 0.08 0.19 0.217 0.19 0.41v0l-0.05 0.1c-0.16 0.1-0.273 0.24-0.34 0.42-0.067 0.173-0.1 0.36-0.1 0.56v0c0 0.127 0.033 0.32 0.1 0.58v0c-0.553 1.86-0.92 3.75-1.1 5.67-0.173 1.92-0.393 3.84-0.66 5.76v0l-0.43 3.22c-0.067 0.193-0.127 0.38-0.18 0.56-0.047 0.18-0.07 0.37-0.07 0.57v0c0 1.04 0.073 2.057 0.22 3.05 0.147 0.993 0.187 2.01 0.12 3.05v0c0.293 0.453 0.44 0.893 0.44 1.32v0c0 0.16-0.007 0.323-0.02 0.49-0.02 0.16-0.047 0.32-0.08 0.48v0c0.427 0.427 0.923 0.73 1.49 0.91 0.573 0.18 1.087 0.463 1.54 0.85v0 0.2c0 0.32-0.047 0.637-0.14 0.95-0.1 0.307-0.183 0.623-0.25 0.95v0c-0.067 0.26-0.14 0.633-0.22 1.12-0.08 0.493-0.187 0.82-0.32 0.98v0c-0.16 0.227-0.393 0.43-0.7 0.61-0.313 0.18-0.617 0.27-0.91 0.27v0c-0.093 0-0.23-0.05-0.41-0.15-0.18-0.093-0.32-0.173-0.42-0.24v0c-0.16 0-0.37 0.08-0.63 0.24-0.26 0.167-0.52 0.25-0.78 0.25v0c-0.133 0-0.247-0.01-0.34-0.03-0.1-0.013-0.217-0.053-0.35-0.12v0c-0.127-0.327-0.313-0.61-0.56-0.85-0.24-0.247-0.523-0.483-0.85-0.71v0c0.033-0.46-0.05-0.803-0.25-1.03-0.193-0.227-0.387-0.52-0.58-0.88v0c-0.067-0.453-0.123-0.973-0.17-1.56-0.053-0.587-0.307-1.01-0.76-1.27v0c0.16-0.227 0.24-0.537 0.24-0.93v0c0-0.16-0.023-0.337-0.07-0.53-0.047-0.2-0.153-0.347-0.32-0.44v0-0.1c-0.033-0.16 0.023-0.283 0.17-0.37 0.147-0.08 0.22-0.2 0.22-0.36v0-0.2c-0.227-1.04-0.34-2.13-0.34-3.27v0c0-1.073 0.033-2.14 0.1-3.2 0.067-1.053 0.067-2.12 0-3.2v0c0.193-0.16 0.347-0.42 0.46-0.78 0.113-0.353 0.203-0.743 0.27-1.17 0.067-0.42 0.107-0.833 0.12-1.24 0.02-0.407 0.047-0.743 0.08-1.01v0c0.16-1.853 0.42-3.683 0.78-5.49 0.36-1.807 0.57-3.653 0.63-5.54v0c0.167-0.26 0.267-0.603 0.3-1.03 0.027-0.42 0.04-0.867 0.04-1.34 0-0.473 0.033-0.937 0.1-1.39 0.067-0.453 0.197-0.843 0.39-1.17v0c0-0.913 0.083-1.833 0.25-2.76 0.16-0.927 0.24-1.863 0.24-2.81v0c0-0.453-0.047-0.923-0.14-1.41v0c-0.327-0.133-0.62-0.2-0.88-0.2v0c-0.36 0-0.727 0.073-1.1 0.22-0.373 0.147-0.643 0.367-0.81 0.66v0c-0.713 0.033-1.413 0.147-2.1 0.34-0.68 0.193-1.363 0.29-2.05 0.29v0h-0.49c-0.127 0-0.273-0.013-0.44-0.04v0c-0.227 0.093-0.46 0.173-0.7 0.24-0.247 0.067-0.353 0.263-0.32 0.59v0c-1.013 0.093-2 0.303-2.96 0.63-0.96 0.327-1.91 0.677-2.85 1.05-0.947 0.373-1.9 0.723-2.86 1.05-0.96 0.327-1.943 0.537-2.95 0.63v0c-0.36 0.167-0.59 0.51-0.69 1.03v0c-0.713-0.067-1.313-0.247-1.8-0.54-0.493-0.293-1.063-0.57-1.71-0.83v0c-0.193-0.68-0.29-1.33-0.29-1.95v0c0-0.813 0.16-1.593 0.48-2.34 0.327-0.753 0.85-1.307 1.57-1.66v0c0.16 0.027 0.307 0.05 0.44 0.07 0.127 0.013 0.27 0.02 0.43 0.02v0c0.527 0 1.05-0.097 1.57-0.29 0.52-0.193 1.057-0.29 1.61-0.29v0c0.16 0 0.34 0.047 0.54 0.14v0c0.227-0.127 0.51-0.23 0.85-0.31 0.34-0.087 0.667-0.17 0.98-0.25 0.307-0.08 0.59-0.2 0.85-0.36 0.26-0.167 0.423-0.397 0.49-0.69v0c0.16 0.133 0.34 0.217 0.54 0.25 0.193 0.033 0.387 0.05 0.58 0.05v0c0.427 0 0.867-0.083 1.32-0.25 0.453-0.16 0.813-0.42 1.08-0.78v0c0.227 0.26 0.55 0.39 0.97 0.39v0c0.46 0 0.907-0.123 1.34-0.37 0.44-0.24 0.873-0.36 1.3-0.36v0c0.327 0 0.57 0.113 0.73 0.34v0c0.36-0.293 0.783-0.52 1.27-0.68 0.487-0.167 0.983-0.313 1.49-0.44 0.507-0.133 0.98-0.28 1.42-0.44 0.433-0.167 0.783-0.397 1.05-0.69v0c0.16 0.033 0.42 0.05 0.78 0.05v0c0.553 0 1.08-0.073 1.58-0.22 0.507-0.147 1.02-0.283 1.54-0.41v0l1.03-0.1c0.26-0.033 0.497-0.113 0.71-0.24 0.207-0.133 0.423-0.25 0.65-0.35 0.233-0.093 0.47-0.173 0.71-0.24 0.247-0.067 0.55-0.083 0.91-0.05v0c0.78-0.42 1.61-0.747 2.49-0.98 0.873-0.227 1.767-0.43 2.68-0.61 0.913-0.173 1.81-0.383 2.69-0.63 0.88-0.247 1.71-0.613 2.49-1.1v0h0.14c0.653 0 1.297-0.113 1.93-0.34 0.633-0.227 1.227-0.537 1.78-0.93v0c0.1 0.033 0.2 0.05 0.3 0.05v0h0.34c0.913 0 1.8-0.13 2.66-0.39 0.86-0.26 1.763-0.39 2.71-0.39v0c0.553 0 0.993 0.073 1.32 0.22 0.327 0.147 0.62 0.327 0.88 0.54 0.26 0.207 0.537 0.41 0.83 0.61 0.293 0.193 0.667 0.34 1.12 0.44v0c0.293 0.553 0.44 1.147 0.44 1.78 0 0.633 0.017 1.277 0.05 1.93z" fill="#ffffff" fill-rule="nonzero" stroke="none" stroke-width="1" stroke-linecap="butt" stroke-linejoin="miter" stroke-miterlimit="10" stroke-dasharray="" stroke-dashoffset="0" font-family="none" font-weight="none" font-size="none" text-anchor="none" style="mix-blend-mode: normal" data-fill-palette-color="primary" opacity="1"></path><path xmlns="http://www.w3.org/2000/svg" d="M48.68 36.15v0c0 1.14-0.21 2.24-0.63 3.3-0.427 1.053-0.737 2.133-0.93 3.24v0c-0.72 0.947-1.387 1.923-2 2.93-0.62 1.013-1.257 2.023-1.91 3.03-0.647 1.007-1.33 1.977-2.05 2.91-0.713 0.927-1.527 1.763-2.44 2.51v0c0.033 0.033 0.05 0.1 0.05 0.2v0c0 0.193-0.09 0.347-0.27 0.46-0.18 0.113-0.237 0.25-0.17 0.41v0c-0.813 0.847-1.61 1.677-2.39 2.49-0.78 0.82-1.497 1.733-2.15 2.74v0c-0.72 0.36-1.307 0.947-1.76 1.76v0c-0.193 0-0.34 0.04-0.44 0.12-0.093 0.08-0.223 0.153-0.39 0.22v0c-1.04 1.267-2.13 2.47-3.27 3.61-1.14 1.14-2.36 2.183-3.66 3.13v0c-0.487 0.353-0.977 0.677-1.47 0.97-0.487 0.293-0.957 0.603-1.41 0.93v0c-0.293 0.193-0.58 0.423-0.86 0.69-0.273 0.26-0.557 0.503-0.85 0.73v0c-0.947 0.813-1.877 1.487-2.79 2.02-0.907 0.54-1.98 0.907-3.22 1.1v0c-0.093 0.36-0.14 0.75-0.14 1.17v0 1.18c0 0.387-0.017 0.783-0.05 1.19-0.033 0.407-0.15 0.79-0.35 1.15v0 0.15c0 0.32 0.083 0.637 0.25 0.95 0.16 0.307 0.24 0.623 0.24 0.95v0c0 0.227-0.113 0.423-0.34 0.59v0h1.27c0 0.453 0.14 0.843 0.42 1.17 0.273 0.327 0.41 0.57 0.41 0.73v0c0 0.553-0.057 1.163-0.17 1.83-0.113 0.667-0.447 1.113-1 1.34v0 0.3c0 0.327-0.033 0.643-0.1 0.95-0.067 0.307-0.213 0.607-0.44 0.9v0c-0.193 0-0.38 0.01-0.56 0.03-0.18 0.013-0.35 0.02-0.51 0.02v0c-1.367 0-2.587-0.323-3.66-0.97v0c-0.36-0.847-0.597-1.72-0.71-2.62-0.113-0.893-0.17-1.797-0.17-2.71v0c0-1.787 0.13-3.56 0.39-5.32 0.26-1.76 0.47-3.517 0.63-5.27v0l0.73-1.42c0.067-0.913 0.183-1.833 0.35-2.76 0.16-0.927 0.32-1.847 0.48-2.76 0.167-0.907 0.307-1.817 0.42-2.73 0.113-0.913 0.153-1.823 0.12-2.73v0c0.26-0.553 0.447-1.14 0.56-1.76 0.113-0.62 0.17-1.223 0.17-1.81v0c0-0.327-0.013-0.653-0.04-0.98-0.033-0.32-0.133-0.627-0.3-0.92v0c0.2-0.133 0.33-0.297 0.39-0.49 0.067-0.193 0.167-0.373 0.3-0.54v0c0.093-1.267 0.173-2.527 0.24-3.78 0.067-1.253 0.1-2.5 0.1-3.74v0c0-0.68-0.017-1.353-0.05-2.02-0.033-0.673-0.083-1.35-0.15-2.03v0c-0.033-0.26-0.09-0.57-0.17-0.93-0.08-0.36-0.12-0.637-0.12-0.83v0c0-0.26 0.017-0.527 0.05-0.8 0.033-0.28 0.05-0.567 0.05-0.86v0c0-0.327-0.033-0.643-0.1-0.95-0.067-0.313-0.18-0.6-0.34-0.86v0c-1.567 0.46-2.967 1.073-4.2 1.84-1.24 0.76-2.493 1.613-3.76 2.56v0c-0.52 0.36-1.09 0.783-1.71 1.27-0.62 0.487-1.207 0.86-1.76 1.12v0c-0.093 0.067-0.213 0.107-0.36 0.12-0.147 0.02-0.27 0.03-0.37 0.03v0c-0.36 0-0.687-0.027-0.98-0.08-0.293-0.047-0.587-0.07-0.88-0.07v0c-0.453-0.453-0.99-0.81-1.61-1.07v0c-0.093-0.393-0.14-0.817-0.14-1.27v0c0-0.46 0.04-0.9 0.12-1.32 0.08-0.427 0.2-0.85 0.36-1.27v0c0.393-0.133 0.81-0.28 1.25-0.44 0.44-0.16 0.863-0.347 1.27-0.56 0.407-0.213 0.773-0.457 1.1-0.73 0.327-0.28 0.587-0.63 0.78-1.05v0c0.193 0.093 0.373 0.14 0.54 0.14v0c0.16 0 0.307-0.017 0.44-0.05 0.127-0.027 0.27-0.057 0.43-0.09v0c0.587-0.36 1.183-0.737 1.79-1.13 0.6-0.387 1.227-0.71 1.88-0.97v0c0.193-0.067 0.307-0.15 0.34-0.25 0.033-0.093 0.033-0.24 0-0.44v0c0.747-0.227 1.527-0.493 2.34-0.8 0.813-0.313 1.497-0.747 2.05-1.3v0h0.88c0.487-0.353 1.007-0.647 1.56-0.88 0.553-0.227 1.117-0.443 1.69-0.65 0.567-0.213 1.127-0.443 1.68-0.69 0.553-0.24 1.077-0.557 1.57-0.95v0c0.193-0.067 0.353-0.1 0.48-0.1v0c0.167 0 0.347 0.033 0.54 0.1v0c0.327-0.16 0.603-0.357 0.83-0.59v0l0.78-0.78c0.52 0 0.993-0.047 1.42-0.14 0.42-0.1 0.827-0.23 1.22-0.39 0.393-0.167 0.777-0.357 1.15-0.57 0.373-0.207 0.787-0.427 1.24-0.66v0c0.2 0.067 0.347 0.14 0.44 0.22 0.1 0.087 0.263 0.13 0.49 0.13v0c0.327-0.233 0.677-0.407 1.05-0.52 0.373-0.113 0.757-0.2 1.15-0.26 0.387-0.067 0.767-0.15 1.14-0.25 0.38-0.1 0.717-0.28 1.01-0.54v0c1.04 0 2.09-0.023 3.15-0.07 1.053-0.047 2.1-0.07 3.14-0.07v0c1.5 0 3.023 0.113 4.57 0.34 1.547 0.227 2.937 0.797 4.17 1.71v0c0.493 1.173 1.193 2.167 2.1 2.98v0c0.067 0.353 0.14 0.687 0.22 1 0.087 0.307 0.193 0.607 0.32 0.9v0c-0.227 0.487-0.34 1.023-0.34 1.61v0c0 0.587 0.057 1.167 0.17 1.74 0.113 0.567 0.17 1.127 0.17 1.68zM44.14 34.98v0c-0.16-0.293-0.267-0.627-0.32-1-0.047-0.373-0.053-0.74-0.02-1.1v0c-0.427-0.327-0.753-0.75-0.98-1.27-0.227-0.52-0.55-0.91-0.97-1.17v0c-0.293-0.167-0.71-0.267-1.25-0.3-0.54-0.027-0.987-0.09-1.34-0.19v0c-0.427-0.133-0.713-0.263-0.86-0.39-0.147-0.133-0.447-0.2-0.9-0.2v0c-0.393 0-0.783 0.043-1.17 0.13-0.393 0.08-0.783 0.12-1.17 0.12v0c-0.327 0-0.637-0.067-0.93-0.2-0.293-0.127-0.603-0.19-0.93-0.19v0c-0.36 0-0.693 0.113-1 0.34-0.307 0.227-0.673 0.29-1.1 0.19v0c-0.193 0.167-0.3 0.297-0.32 0.39-0.013 0.1-0.037 0.173-0.07 0.22-0.033 0.053-0.113 0.08-0.24 0.08v0h-0.69c-0.68 0-1.37 0.097-2.07 0.29-0.7 0.193-1.327 0.52-1.88 0.98v0c-0.1-0.033-0.19-0.06-0.27-0.08-0.08-0.013-0.17-0.02-0.27-0.02v0c-0.553 0-1.083 0.153-1.59 0.46-0.5 0.313-1.06 0.47-1.68 0.47v0c-0.393 0.387-0.867 0.693-1.42 0.92-0.553 0.233-1.113 0.453-1.68 0.66-0.573 0.213-1.103 0.46-1.59 0.74-0.487 0.273-0.86 0.67-1.12 1.19v0c-0.033 0.26 0.047 0.423 0.24 0.49 0.2 0.067 0.3 0.23 0.3 0.49v0c0 0.227-0.043 0.503-0.13 0.83-0.08 0.327-0.12 0.653-0.12 0.98v0c0 0.747 0.083 1.477 0.25 2.19 0.16 0.72 0.32 1.453 0.48 2.2v0c-0.16 0.1-0.273 0.247-0.34 0.44-0.067 0.193-0.18 0.34-0.34 0.44v0c0.453 1.367 0.68 2.767 0.68 4.2v0c0 1.14-0.12 2.253-0.36 3.34-0.247 1.093-0.417 2.21-0.51 3.35v0 0.05c0 0.193 0.063 0.323 0.19 0.39 0.133 0.067 0.2 0.18 0.2 0.34v0c0 0.1-0.017 0.18-0.05 0.24v0c-0.36 2.213-0.71 4.427-1.05 6.64-0.347 2.213-0.633 4.443-0.86 6.69v0h0.39c0.847 0 1.603-0.25 2.27-0.75 0.667-0.507 1.23-1.07 1.69-1.69v0h0.78c2.347-2.047 4.6-4.163 6.76-6.35 2.167-2.18 4.227-4.523 6.18-7.03v0c0.26 0 0.44-0.063 0.54-0.19 0.093-0.133 0.253-0.23 0.48-0.29v0c0.687-0.947 1.403-1.883 2.15-2.81 0.753-0.927 1.567-1.813 2.44-2.66v0c0.033-0.327 0.123-0.62 0.27-0.88 0.147-0.26 0.303-0.507 0.47-0.74 0.16-0.227 0.307-0.47 0.44-0.73 0.127-0.26 0.19-0.57 0.19-0.93v0c0.167-0.06 0.347-0.13 0.54-0.21 0.193-0.087 0.373-0.21 0.54-0.37v0c0.06-0.327 0.173-0.62 0.34-0.88 0.16-0.26 0.24-0.553 0.24-0.88v0c0-0.127-0.033-0.29-0.1-0.49v0c0.527-0.227 0.933-0.6 1.22-1.12 0.293-0.52 0.523-1.097 0.69-1.73 0.16-0.64 0.28-1.283 0.36-1.93 0.087-0.653 0.21-1.223 0.37-1.71zM85.11 91.96v0c-0.1 0.553-0.32 0.953-0.66 1.2-0.34 0.24-0.657 0.59-0.95 1.05v0h-0.2c-0.327 0-0.643 0.03-0.95 0.09-0.313 0.067-0.63 0.15-0.95 0.25v0c-0.167-0.067-0.363-0.117-0.59-0.15-0.227-0.033-0.373-0.147-0.44-0.34v0c-0.26 0.133-0.617 0.2-1.07 0.2v0c-0.753 0-1.463-0.213-2.13-0.64-0.667-0.42-1.357-0.747-2.07-0.98v0c-0.2-0.387-0.437-0.737-0.71-1.05-0.28-0.307-0.557-0.607-0.83-0.9-0.28-0.293-0.55-0.603-0.81-0.93-0.26-0.32-0.47-0.71-0.63-1.17v0c-0.067-0.193-0.147-0.307-0.24-0.34-0.1-0.033-0.247-0.033-0.44 0v0c0.027-0.36-0.017-0.67-0.13-0.93-0.113-0.26-0.363-0.423-0.75-0.49v0c0-0.42-0.067-0.777-0.2-1.07-0.127-0.293-0.28-0.547-0.46-0.76-0.18-0.207-0.377-0.427-0.59-0.66-0.213-0.227-0.383-0.503-0.51-0.83v0c-0.293-0.06-0.58-0.1-0.86-0.12-0.273-0.013-0.573-0.02-0.9-0.02v0c-1.56 0-3.073 0.293-4.54 0.88v0c-0.16 0.06-0.33 0.14-0.51 0.24-0.18 0.1-0.353 0.18-0.52 0.24v0c-0.06 0-0.117 0.01-0.17 0.03-0.047 0.013-0.103 0.02-0.17 0.02v0c-0.227 0-0.437-0.04-0.63-0.12-0.193-0.08-0.407-0.12-0.64-0.12v0c-0.093 0-0.197 0.023-0.31 0.07-0.113 0.053-0.22 0.093-0.32 0.12v0c-0.487 0.167-0.943 0.267-1.37 0.3v0c-1.333 0.26-2.74 0.453-4.22 0.58-1.48 0.133-2.84 0.477-4.08 1.03v0c-0.26 0.127-0.423 0.33-0.49 0.61-0.067 0.273-0.083 0.54-0.05 0.8v0c-0.353 0.267-0.62 0.61-0.8 1.03-0.18 0.427-0.343 0.873-0.49 1.34-0.147 0.473-0.3 0.937-0.46 1.39-0.167 0.46-0.397 0.853-0.69 1.18v0c0.1 0.193 0.15 0.403 0.15 0.63v0c0 0.487-0.163 0.977-0.49 1.47-0.327 0.487-0.57 0.957-0.73 1.41v0c-0.167 0.46-0.297 0.907-0.39 1.34-0.1 0.44-0.247 0.84-0.44 1.2-0.2 0.36-0.47 0.653-0.81 0.88-0.34 0.227-0.82 0.34-1.44 0.34v0c-0.587 0-1.09-0.113-1.51-0.34-0.427-0.227-0.77-0.52-1.03-0.88-0.26-0.36-0.47-0.783-0.63-1.27-0.167-0.487-0.297-0.973-0.39-1.46v0c0.353-0.72 0.693-1.34 1.02-1.86 0.327-0.52 0.573-1.187 0.74-2v0c0.58-0.427 1.01-0.94 1.29-1.54 0.273-0.6 0.427-1.26 0.46-1.98v0c0.36-0.227 0.613-0.527 0.76-0.9 0.147-0.373 0.237-0.773 0.27-1.2v0c-0.78-0.06-1.603-0.123-2.47-0.19-0.86-0.067-1.663-0.23-2.41-0.49v0c0-0.067 0.007-0.13 0.02-0.19 0.013-0.067 0.02-0.133 0.02-0.2v0c0-0.42-0.097-0.803-0.29-1.15-0.193-0.34-0.29-0.707-0.29-1.1v0-0.39c0.26-0.26 0.497-0.527 0.71-0.8 0.207-0.28 0.427-0.533 0.66-0.76 0.227-0.227 0.487-0.413 0.78-0.56 0.293-0.147 0.667-0.22 1.12-0.22v0c0.62 0 1.223 0.04 1.81 0.12 0.587 0.08 1.187 0.12 1.8 0.12v0c0.427 0 0.867-0.047 1.32-0.14v0c0.72-1.467 1.357-2.957 1.91-4.47 0.553-1.513 0.977-3.05 1.27-4.61v0c0.227-0.327 0.437-0.71 0.63-1.15 0.193-0.44 0.347-0.903 0.46-1.39 0.113-0.493 0.197-0.973 0.25-1.44 0.047-0.473 0.07-0.907 0.07-1.3v0c0.36-0.42 0.613-0.94 0.76-1.56 0.147-0.62 0.267-1.263 0.36-1.93 0.1-0.667 0.207-1.327 0.32-1.98 0.113-0.647 0.333-1.217 0.66-1.71v0-0.44c0.033-0.487-0.017-0.923-0.15-1.31v0c0.167-0.067 0.267-0.213 0.3-0.44 0.033-0.233 0.097-0.43 0.19-0.59v0c0.033-1.5 0.197-2.973 0.49-4.42 0.293-1.447 0.537-2.903 0.73-4.37v0-0.14c0-0.167-0.057-0.257-0.17-0.27-0.113-0.02-0.17-0.11-0.17-0.27v0c0-0.293 0.04-0.683 0.12-1.17 0.087-0.493 0.143-0.9 0.17-1.22v0c0.2-1.76 0.3-3.503 0.3-5.23v0c0-1.467-0.05-2.913-0.15-4.34-0.1-1.433-0.197-2.883-0.29-4.35v0l0.39-0.59c0.127-0.193 0.24-0.387 0.34-0.58v0c0.327-0.133 0.597-0.273 0.81-0.42 0.207-0.147 0.49-0.22 0.85-0.22v0c0.1 0 0.18 0.01 0.24 0.03 0.067 0.013 0.133 0.02 0.2 0.02v0c0.193 0.133 0.347 0.313 0.46 0.54 0.113 0.227 0.23 0.437 0.35 0.63 0.113 0.2 0.267 0.363 0.46 0.49 0.193 0.133 0.47 0.167 0.83 0.1v0c0.16 0.913 0.617 1.387 1.37 1.42v0c0.16 0.453 0.363 0.907 0.61 1.36 0.24 0.46 0.573 0.82 1 1.08v0c-0.033 0.127-0.05 0.303-0.05 0.53v0c0 0.46 0.107 0.9 0.32 1.32 0.207 0.427 0.473 0.817 0.8 1.17v0 0.1c0 0.36-0.13 0.603-0.39 0.73v0c0.293 0.327 0.507 0.72 0.64 1.18 0.127 0.453 0.24 0.917 0.34 1.39 0.093 0.473 0.213 0.92 0.36 1.34 0.147 0.427 0.4 0.753 0.76 0.98v0 0.14c0 0.167-0.057 0.267-0.17 0.3-0.113 0.033-0.17 0.13-0.17 0.29v0c0.587 1.073 0.993 2.247 1.22 3.52 0.227 1.267 0.52 2.487 0.88 3.66v0c0.127 0.127 0.28 0.207 0.46 0.24 0.18 0.033 0.32 0.117 0.42 0.25v0c-0.193 0.127-0.29 0.353-0.29 0.68 0 0.327-0.083 0.57-0.25 0.73v0c0.26 0.227 0.383 0.56 0.37 1-0.02 0.44 0.1 0.757 0.36 0.95v0 0.2c0 0.133-0.03 0.24-0.09 0.32-0.067 0.08-0.1 0.183-0.1 0.31v0 0.2c0.26 1.14 0.463 2.28 0.61 3.42 0.147 1.14 0.3 2.28 0.46 3.42 0.167 1.133 0.347 2.263 0.54 3.39 0.193 1.12 0.47 2.22 0.83 3.3v0c0.033 0.027 0.05 0.073 0.05 0.14v0c0 0.167-0.067 0.257-0.2 0.27-0.127 0.013-0.19 0.103-0.19 0.27v0c0 0.16 0.057 0.347 0.17 0.56 0.113 0.213 0.233 0.383 0.36 0.51v0c-0.027 0.133-0.04 0.33-0.04 0.59v0c0 0.487 0.087 0.96 0.26 1.42 0.18 0.453 0.377 0.9 0.59 1.34 0.213 0.44 0.4 0.903 0.56 1.39 0.167 0.487 0.233 1.007 0.2 1.56v0c0.193 0.293 0.443 0.537 0.75 0.73 0.313 0.2 0.633 0.38 0.96 0.54 0.32 0.167 0.62 0.363 0.9 0.59 0.273 0.227 0.46 0.537 0.56 0.93v0c-0.26 0.227-0.44 0.51-0.54 0.85-0.093 0.34-0.27 0.64-0.53 0.9v0c0.227 0.553 0.493 1.067 0.8 1.54 0.313 0.473 0.63 0.937 0.95 1.39v0l1.03 1.37c0.36 0.453 0.67 0.94 0.93 1.46v0c0.36 0 0.62 0.1 0.78 0.3 0.16 0.193 0.42 0.273 0.78 0.24v0c0.133 0.26 0.183 0.553 0.15 0.88v0c0.647-0.227 1.297-0.34 1.95-0.34v0c0.36 0 0.693 0.017 1 0.05 0.307 0.033 0.623 0.05 0.95 0.05v0c0.393 0 0.737-0.05 1.03-0.15v0c0.127 0.193 0.223 0.413 0.29 0.66 0.067 0.247 0.117 0.5 0.15 0.76v0l0.14 0.78c0.067 0.26 0.167 0.487 0.3 0.68zM66.7 78.44v0c-0.453-2.247-0.917-4.487-1.39-6.72-0.473-2.227-0.89-4.48-1.25-6.76v0c-0.193-1.207-0.34-2.41-0.44-3.61-0.093-1.207-0.213-2.403-0.36-3.59-0.147-1.193-0.343-2.373-0.59-3.54-0.247-1.173-0.597-2.33-1.05-3.47v0-0.1c0-0.093 0.033-0.173 0.1-0.24 0.067-0.067 0.1-0.18 0.1-0.34v0-0.2c-0.427-0.293-0.72-0.707-0.88-1.24-0.167-0.54-0.307-1.11-0.42-1.71-0.113-0.607-0.26-1.193-0.44-1.76-0.18-0.573-0.48-1.053-0.9-1.44v0c-0.16 1.887-0.33 3.767-0.51 5.64-0.18 1.873-0.303 3.753-0.37 5.64v0c-0.327 0.193-0.537 0.517-0.63 0.97-0.1 0.46-0.15 0.87-0.15 1.23v0c0 0.26 0.017 0.527 0.05 0.8 0.033 0.28 0.097 0.567 0.19 0.86v0c-0.587 1.46-1.01 2.963-1.27 4.51-0.26 1.547-0.55 3.087-0.87 4.62v0c-0.033 0.093-0.093 0.313-0.18 0.66-0.08 0.34-0.167 0.69-0.26 1.05-0.1 0.353-0.183 0.67-0.25 0.95-0.067 0.273-0.1 0.427-0.1 0.46v0c-0.027 0.227-0.033 0.457-0.02 0.69 0.013 0.227 0.02 0.453 0.02 0.68v0l-0.73 0.73c-0.127 1.24-0.363 2.437-0.71 3.59-0.34 1.153-0.69 2.333-1.05 3.54v0c0.233 0.033 0.453 0.057 0.66 0.07 0.213 0.02 0.433 0.03 0.66 0.03v0c1.04 0 2.09-0.073 3.15-0.22 1.06-0.147 2.11-0.287 3.15-0.42v0c0.36-0.06 0.733-0.117 1.12-0.17 0.393-0.047 0.77-0.07 1.13-0.07v0c0.16-0.033 0.353-0.043 0.58-0.03 0.227 0.02 0.423 0.013 0.59-0.02v0c0.26-0.067 0.43-0.173 0.51-0.32 0.08-0.147 0.25-0.237 0.51-0.27v0c0.2 0.1 0.43 0.15 0.69 0.15v0c0.293 0 0.57-0.063 0.83-0.19 0.26-0.133 0.52-0.28 0.78-0.44zM133.54 37.81v0c-0.06 0.16-0.19 0.453-0.39 0.88-0.193 0.42-0.29 0.697-0.29 0.83v0c0 0.26-0.007 0.593-0.02 1-0.02 0.407 0.1 0.66 0.36 0.76v0c-0.353 0.747-0.573 1.503-0.66 2.27-0.08 0.767-0.12 1.547-0.12 2.34 0 0.8-0.017 1.597-0.05 2.39-0.033 0.8-0.163 1.573-0.39 2.32v0c0.133 0.2 0.173 0.437 0.12 0.71-0.047 0.28 0.027 0.5 0.22 0.66v0c-0.16 0.26-0.257 0.513-0.29 0.76-0.033 0.24-0.05 0.49-0.05 0.75v0c0 0.527 0.05 1.033 0.15 1.52v0c-0.36 0.52-0.53 1.097-0.51 1.73 0.013 0.633 0.02 1.277 0.02 1.93v0c0 0.553-0.073 1.09-0.22 1.61-0.147 0.52-0.22 1.057-0.22 1.61v0c0 0.167 0.017 0.313 0.05 0.44 0.033 0.133 0.05 0.28 0.05 0.44v0c0 0.167-0.057 0.273-0.17 0.32-0.113 0.047-0.17 0.2-0.17 0.46v0c0 1.207-0.083 2.37-0.25 3.49-0.16 1.127-0.363 2.233-0.61 3.32-0.24 1.093-0.507 2.193-0.8 3.3-0.293 1.107-0.553 2.23-0.78 3.37v0c-0.36 0.393-0.63 0.833-0.81 1.32-0.18 0.487-0.497 0.877-0.95 1.17v0c-0.427 1.073-0.957 2.05-1.59 2.93-0.633 0.88-1.333 1.71-2.1 2.49-0.767 0.78-1.557 1.537-2.37 2.27-0.813 0.733-1.61 1.49-2.39 2.27v0c-0.327 0-0.643 0.01-0.95 0.03-0.313 0.013-0.63 0.02-0.95 0.02v0c-0.72 0-1.437-0.033-2.15-0.1-0.72-0.067-1.403-0.18-2.05-0.34v0c-0.133-0.453-0.387-0.753-0.76-0.9-0.373-0.147-0.707-0.367-1-0.66v0c-0.327-0.293-0.57-0.62-0.73-0.98-0.167-0.36-0.51-0.603-1.03-0.73v0c-0.16-0.487-0.413-1.057-0.76-1.71-0.34-0.653-0.673-1.32-1-2-0.32-0.687-0.603-1.347-0.85-1.98-0.247-0.633-0.37-1.18-0.37-1.64v0c0-0.16 0.027-0.313 0.08-0.46 0.047-0.147 0.087-0.3 0.12-0.46v0c-0.193-0.233-0.323-0.527-0.39-0.88-0.067-0.36-0.107-0.727-0.12-1.1-0.02-0.373-0.063-0.73-0.13-1.07-0.06-0.347-0.207-0.617-0.44-0.81v0c-0.387 0.26-0.693 0.587-0.92 0.98-0.233 0.387-0.437 0.81-0.61 1.27-0.18 0.453-0.353 0.907-0.52 1.36-0.16 0.46-0.353 0.883-0.58 1.27v0c-0.46 0.36-0.86 0.767-1.2 1.22-0.34 0.46-0.68 0.923-1.02 1.39-0.347 0.473-0.713 0.913-1.1 1.32-0.393 0.407-0.85 0.74-1.37 1v0c-0.133 0.587-0.37 1.083-0.71 1.49-0.34 0.407-0.707 0.783-1.1 1.13-0.387 0.34-0.76 0.697-1.12 1.07-0.36 0.373-0.62 0.837-0.78 1.39v0c-0.553 0.26-1.173 0.643-1.86 1.15-0.68 0.507-1.37 1.02-2.07 1.54-0.7 0.52-1.4 0.967-2.1 1.34-0.7 0.373-1.31 0.56-1.83 0.56v0c-0.427 0-0.827-0.04-1.2-0.12-0.373-0.08-0.757-0.17-1.15-0.27-0.387-0.1-0.777-0.19-1.17-0.27-0.387-0.08-0.793-0.103-1.22-0.07v0c-0.62-0.653-1.09-1.393-1.41-2.22-0.327-0.833-0.737-1.607-1.23-2.32v0c-0.16-0.98-0.32-1.967-0.48-2.96-0.167-0.987-0.25-1.97-0.25-2.95v0c0-0.553 0.067-1.067 0.2-1.54 0.127-0.473 0.19-0.953 0.19-1.44v0c0-0.16-0.023-0.313-0.07-0.46-0.047-0.147-0.087-0.303-0.12-0.47v0c0.227-0.453 0.403-0.933 0.53-1.44 0.133-0.5 0.24-1.01 0.32-1.53 0.08-0.527 0.17-1.04 0.27-1.54 0.1-0.507 0.247-0.987 0.44-1.44v0c0.067-0.393-0.047-0.687-0.34-0.88v0c0.227-0.227 0.373-0.47 0.44-0.73 0.067-0.267 0.107-0.53 0.12-0.79 0.013-0.26 0.02-0.537 0.02-0.83 0-0.293 0.033-0.57 0.1-0.83v0c0.033-0.127 0.117-0.32 0.25-0.58v0l0.44-0.83c0.16-0.293 0.297-0.563 0.41-0.81 0.113-0.24 0.17-0.427 0.17-0.56v0c0-0.227-0.063-0.47-0.19-0.73v0c0.127-0.653 0.347-1.29 0.66-1.91 0.307-0.613 0.54-1.247 0.7-1.9v0c0.167-0.653 0.267-1.23 0.3-1.73 0.027-0.507 0.173-1.103 0.44-1.79v0c0.027-0.06 0.04-0.14 0.04-0.24v0c0-0.133-0.047-0.213-0.14-0.24-0.1-0.033-0.183-0.1-0.25-0.2v0c0.393-0.747 0.697-1.553 0.91-2.42 0.207-0.86 0.383-1.747 0.53-2.66 0.147-0.907 0.287-1.81 0.42-2.71 0.127-0.893 0.323-1.747 0.59-2.56v0c-0.1-0.653-0.183-1.33-0.25-2.03-0.067-0.7-0.1-1.373-0.1-2.02v0c0-0.753 0.073-1.52 0.22-2.3 0.147-0.78 0.48-1.463 1-2.05v0c0.26 0 0.547-0.017 0.86-0.05 0.307-0.033 0.59-0.05 0.85-0.05v0c0.393 0 0.817 0.1 1.27 0.3v0c0.227 1.04 0.52 2.063 0.88 3.07 0.36 1.013 0.54 2.087 0.54 3.22v0c0 0.553-0.067 1.107-0.2 1.66v0l-0.34 1.62c-0.1 0.52-0.18 1.047-0.24 1.58-0.067 0.54-0.05 1.07 0.05 1.59v0c-0.36 0.487-0.563 1.047-0.61 1.68-0.053 0.64-0.08 1.237-0.08 1.79v0c-0.327 0.453-0.57 0.907-0.73 1.36-0.16 0.46-0.283 0.927-0.37 1.4-0.08 0.467-0.153 0.947-0.22 1.44-0.06 0.487-0.14 0.973-0.24 1.46v0c-0.067 0.167-0.173 0.363-0.32 0.59-0.147 0.227-0.22 0.39-0.22 0.49v0c0 0.227 0.067 0.453 0.2 0.68v0c-0.067 0.1-0.133 0.173-0.2 0.22-0.06 0.047-0.107 0.137-0.14 0.27v0c-0.1 0.353-0.173 0.733-0.22 1.14-0.053 0.407-0.127 0.79-0.22 1.15v0c-0.167 0.813-0.387 1.61-0.66 2.39-0.28 0.787-0.567 1.57-0.86 2.35v0c0 0.647-0.023 1.167-0.07 1.56-0.047 0.393-0.113 0.743-0.2 1.05-0.08 0.307-0.177 0.633-0.29 0.98-0.113 0.34-0.22 0.77-0.32 1.29v0c-0.093 0.487-0.18 1.09-0.26 1.81-0.087 0.713-0.17 1.453-0.25 2.22-0.08 0.767-0.137 1.517-0.17 2.25-0.033 0.727-0.05 1.353-0.05 1.88v0c0 0.94 0.09 1.857 0.27 2.75 0.18 0.9 0.497 1.757 0.95 2.57v0h0.83c0.2 0 0.413 0.007 0.64 0.02 0.227 0.02 0.437 0.077 0.63 0.17v0c0.227-0.06 0.34-0.157 0.34-0.29v0-0.39c0-0.1 0.083-0.23 0.25-0.39v0l0.34 0.05c0.327 0 0.627-0.05 0.9-0.15 0.28-0.1 0.567-0.23 0.86-0.39v0c0.62-0.847 1.343-1.563 2.17-2.15 0.833-0.587 1.573-1.27 2.22-2.05v0c0.167-0.26 0.217-0.57 0.15-0.93v0c0.387-0.06 0.687-0.207 0.9-0.44 0.213-0.227 0.417-0.47 0.61-0.73 0.2-0.26 0.403-0.513 0.61-0.76 0.213-0.24 0.5-0.41 0.86-0.51v0c0.16-0.293 0.307-0.61 0.44-0.95 0.127-0.34 0.263-0.673 0.41-1 0.147-0.327 0.327-0.627 0.54-0.9 0.213-0.28 0.497-0.5 0.85-0.66v0c0.553-1.24 1.027-2.52 1.42-3.84 0.393-1.313 0.98-2.523 1.76-3.63v0c0-0.427 0.017-0.82 0.05-1.18 0.027-0.353 0.01-0.727-0.05-1.12v0c0.813-1.107 1.333-2.263 1.56-3.47 0.227-1.2 0.34-2.467 0.34-3.8v0c0-1.107 0.367-1.873 1.1-2.3 0.733-0.42 1.603-0.63 2.61-0.63v0h0.49c0.193 0 0.373 0.013 0.54 0.04v0c0.067 0.233 0.187 0.407 0.36 0.52 0.18 0.113 0.37 0.233 0.57 0.36v0 0.3c0 0.453-0.06 0.867-0.18 1.24-0.113 0.373-0.17 0.773-0.17 1.2v0c0 0.193 0.033 0.453 0.1 0.78v0c0.327 0.947 0.58 1.81 0.76 2.59 0.18 0.78 0.27 1.69 0.27 2.73v0c0 0.88-0.043 1.767-0.13 2.66-0.08 0.9-0.183 1.787-0.31 2.66v0c0.193 0.36 0.29 0.737 0.29 1.13v0c0 0.26-0.023 0.527-0.07 0.8-0.053 0.28-0.08 0.55-0.08 0.81v0c0 0.553 0.09 1.097 0.27 1.63 0.18 0.54 0.377 1.07 0.59 1.59 0.213 0.52 0.4 1.04 0.56 1.56 0.16 0.52 0.227 1.043 0.2 1.57v0c0.553 0.68 1.047 1.387 1.48 2.12 0.44 0.733 0.987 1.377 1.64 1.93v0c0.26 0.067 0.473 0.1 0.64 0.1v0c0.193 0 0.353-0.027 0.48-0.08 0.133-0.047 0.257-0.093 0.37-0.14 0.113-0.053 0.237-0.087 0.37-0.1 0.127-0.02 0.32-0.013 0.58 0.02v0c0.587-0.42 1.123-0.9 1.61-1.44 0.493-0.533 0.957-1.077 1.39-1.63 0.44-0.553 0.89-1.123 1.35-1.71 0.453-0.587 0.923-1.14 1.41-1.66v0c0.947-2.347 1.713-4.69 2.3-7.03 0.587-2.347 0.943-4.79 1.07-7.33v0c0-0.353 0.083-0.53 0.25-0.53 0.16 0 0.307-0.117 0.44-0.35v0-1.36c0-1.047 0.057-2.09 0.17-3.13 0.113-1.04 0.35-2.063 0.71-3.07v0c-0.1-0.393-0.15-0.787-0.15-1.18v0c0-0.847 0.073-1.667 0.22-2.46 0.147-0.8 0.22-1.607 0.22-2.42v0c0-0.42-0.04-0.85-0.12-1.29-0.087-0.44-0.26-0.84-0.52-1.2v0l-0.05-0.29c0-0.2 0.073-0.363 0.22-0.49 0.147-0.133 0.253-0.28 0.32-0.44v0c-0.16-0.427-0.217-0.867-0.17-1.32 0.047-0.453 0.07-0.91 0.07-1.37v0c0-0.26-0.03-0.537-0.09-0.83-0.067-0.293-0.23-0.52-0.49-0.68v0c0.293-0.327 0.503-0.75 0.63-1.27 0.133-0.52 0.223-1.073 0.27-1.66 0.047-0.587 0.07-1.163 0.07-1.73 0-0.573 0.033-1.053 0.1-1.44v0c0.293-0.327 0.627-0.613 1-0.86 0.373-0.24 0.79-0.36 1.25-0.36v0c0.587 0 1.01 0.203 1.27 0.61 0.26 0.407 0.453 0.893 0.58 1.46 0.133 0.573 0.24 1.15 0.32 1.73 0.08 0.587 0.233 1.06 0.46 1.42zM175.63 78.53v0c0 0.327-0.013 0.573-0.04 0.74v0c-0.167 0.06-0.297 0.147-0.39 0.26-0.1 0.12-0.263 0.163-0.49 0.13v0c-0.067 0.487-0.23 0.893-0.49 1.22-0.26 0.327-0.53 0.627-0.81 0.9-0.273 0.28-0.54 0.573-0.8 0.88-0.26 0.307-0.423 0.707-0.49 1.2v0c-0.487 0.26-0.967 0.61-1.44 1.05-0.473 0.433-0.89 0.733-1.25 0.9v0c-0.26 0.127-0.537 0.233-0.83 0.32-0.293 0.08-0.587 0.183-0.88 0.31v0c-0.94 0.427-1.907 0.867-2.9 1.32-0.993 0.46-2.027 0.69-3.1 0.69v0h-0.34c-0.133 0.127-0.297 0.213-0.49 0.26-0.193 0.053-0.39 0.097-0.59 0.13-0.193 0.027-0.387 0.073-0.58 0.14-0.2 0.067-0.347 0.167-0.44 0.3v0c-0.36-0.133-0.75-0.2-1.17-0.2v0h-0.35c-0.553 0.133-1.073 0.23-1.56 0.29-0.487 0.067-1.007 0.1-1.56 0.1v0c-0.98 0-1.957-0.063-2.93-0.19-0.98-0.133-1.957-0.25-2.93-0.35v0c-0.62-0.487-1.123-1.097-1.51-1.83-0.393-0.733-0.59-1.507-0.59-2.32v0c0-0.613 0.13-1.19 0.39-1.73 0.26-0.54 0.603-1.02 1.03-1.44v0h0.14c0.293 0 0.597-0.067 0.91-0.2 0.307-0.127 0.607-0.19 0.9-0.19v0c0.327 0 0.593 0.13 0.8 0.39 0.213 0.26 0.377 0.57 0.49 0.93 0.113 0.353 0.187 0.72 0.22 1.1 0.033 0.373 0.05 0.673 0.05 0.9v0c0.36 0.16 0.743 0.257 1.15 0.29 0.407 0.033 0.82 0.05 1.24 0.05v0c0.427 0 0.9-0.023 1.42-0.07 0.52-0.053 1.05-0.137 1.59-0.25 0.533-0.113 1.053-0.25 1.56-0.41 0.507-0.167 0.937-0.38 1.29-0.64v0c1.793-0.16 3.373-0.567 4.74-1.22 1.367-0.647 2.817-1.41 4.35-2.29v0c0.06-0.36 0.197-0.647 0.41-0.86 0.213-0.207 0.32-0.523 0.32-0.95v0c0-0.067-0.01-0.14-0.03-0.22-0.013-0.08-0.02-0.153-0.02-0.22v0c-0.653-0.813-1.33-1.53-2.03-2.15-0.7-0.613-1.603-1.02-2.71-1.22v0c-0.127-0.293-0.337-0.513-0.63-0.66-0.293-0.147-0.603-0.283-0.93-0.41-0.327-0.133-0.637-0.273-0.93-0.42-0.293-0.147-0.503-0.397-0.63-0.75v0c-0.88-0.167-1.783-0.37-2.71-0.61-0.927-0.247-1.717-0.697-2.37-1.35v0c-0.52-0.033-1.017-0.137-1.49-0.31-0.473-0.18-0.937-0.36-1.39-0.54-0.453-0.18-0.927-0.343-1.42-0.49-0.487-0.147-0.99-0.22-1.51-0.22v0c-0.133-0.227-0.313-0.407-0.54-0.54-0.227-0.127-0.48-0.24-0.76-0.34-0.273-0.093-0.533-0.2-0.78-0.32-0.24-0.113-0.427-0.283-0.56-0.51v0c-0.127 0.033-0.223 0.1-0.29 0.2-0.067 0.093-0.18 0.14-0.34 0.14v0h-0.2c-0.067-0.193-0.197-0.33-0.39-0.41-0.193-0.08-0.307-0.25-0.34-0.51v0c-0.587-0.033-1.117-0.15-1.59-0.35-0.473-0.193-0.913-0.41-1.32-0.65-0.407-0.247-0.82-0.483-1.24-0.71-0.427-0.227-0.9-0.407-1.42-0.54v0c-0.32-0.26-0.62-0.543-0.9-0.85-0.28-0.313-0.63-0.47-1.05-0.47v0c-0.1 0-0.28 0.033-0.54 0.1v0c-0.06-0.587-0.303-1.003-0.73-1.25-0.42-0.24-0.877-0.457-1.37-0.65v0c-0.32-0.847-0.757-1.597-1.31-2.25-0.553-0.653-1.157-1.257-1.81-1.81v0c0.067-0.193 0.1-0.34 0.1-0.44v0c0-0.327-0.083-0.61-0.25-0.85-0.16-0.247-0.34-0.45-0.54-0.61v0c-0.453-1.467-0.68-2.9-0.68-4.3v0c0-1.953 0.433-3.767 1.3-5.44 0.86-1.68 2.217-2.943 4.07-3.79v0c0.033-0.26 0.123-0.487 0.27-0.68 0.147-0.193 0.237-0.42 0.27-0.68v0c0.293 0 0.52-0.067 0.68-0.2 0.167-0.133 0.323-0.27 0.47-0.41 0.147-0.147 0.3-0.287 0.46-0.42 0.16-0.133 0.373-0.213 0.64-0.24v0c1.233-1.08 2.55-1.953 3.95-2.62 1.4-0.667 2.833-1.357 4.3-2.07v0c0.293-0.133 0.537-0.377 0.73-0.73v0h0.29c0.327 0 0.58-0.073 0.76-0.22 0.18-0.147 0.45-0.19 0.81-0.13v0c0.127-0.193 0.297-0.323 0.51-0.39 0.213-0.06 0.423-0.117 0.63-0.17 0.213-0.047 0.417-0.12 0.61-0.22 0.2-0.093 0.33-0.24 0.39-0.44v0h0.35c0.553 0 1.09-0.087 1.61-0.26 0.52-0.18 1.04-0.387 1.56-0.62v0h0.34c0.653 0 1.263-0.12 1.83-0.36 0.573-0.247 1.183-0.417 1.83-0.51v0c0.26-0.067 0.52-0.083 0.78-0.05 0.267 0.033 0.53 0.05 0.79 0.05v0c0.16 0 0.353-0.017 0.58-0.05 0.227-0.033 0.39-0.133 0.49-0.3v0h0.1c0.193 0 0.307 0.067 0.34 0.2 0.033 0.127 0.13 0.19 0.29 0.19v0c0.227 0 0.457-0.03 0.69-0.09 0.227-0.067 0.453-0.1 0.68-0.1v0c0.973 0 1.94 0.097 2.9 0.29 0.967 0.2 1.92 0.38 2.86 0.54v0c0.067 0.393 0.237 0.67 0.51 0.83 0.28 0.16 0.583 0.307 0.91 0.44v0 0.19c0 0.26 0.063 0.473 0.19 0.64v0c-0.127 0.453-0.353 0.793-0.68 1.02-0.327 0.233-0.687 0.43-1.08 0.59v0c0.167 0.133 0.267 0.313 0.3 0.54 0.033 0.227 0.05 0.437 0.05 0.63v0 0.59l-0.25-0.05c-0.52 0-0.78 0.243-0.78 0.73v0c-0.42-0.26-0.883-0.423-1.39-0.49-0.507-0.06-1.003-0.09-1.49-0.09v0c-0.653 0-1.337 0.023-2.05 0.07-0.713 0.047-1.413 0.037-2.1-0.03v0c-0.26 0.327-0.587 0.563-0.98 0.71-0.387 0.147-0.777 0.22-1.17 0.22v0c-0.42 0-0.827-0.09-1.22-0.27-0.387-0.173-0.663-0.44-0.83-0.8v0c-0.16-0.067-0.307-0.1-0.44-0.1v0h-0.44c-0.52 0-1.033 0.057-1.54 0.17-0.5 0.113-1.01 0.243-1.53 0.39-0.527 0.147-1.04 0.293-1.54 0.44-0.507 0.147-1.02 0.237-1.54 0.27v0c-0.193 0.26-0.453 0.44-0.78 0.54-0.327 0.093-0.587 0.27-0.78 0.53v0c-0.687 0.133-1.307 0.353-1.86 0.66-0.553 0.313-1.09 0.647-1.61 1v0l-1.51 1.03c-0.493 0.327-1.047 0.603-1.66 0.83v0c-0.46 0.487-0.883 0.877-1.27 1.17-0.393 0.293-0.9 0.553-1.52 0.78v0c-0.387 0.133-0.607 0.33-0.66 0.59-0.047 0.26-0.183 0.52-0.41 0.78v0c-0.193 0.227-0.43 0.397-0.71 0.51-0.273 0.113-0.51 0.3-0.71 0.56v0c-0.16 0.233-0.28 0.503-0.36 0.81-0.087 0.307-0.177 0.607-0.27 0.9-0.1 0.293-0.213 0.58-0.34 0.86-0.133 0.273-0.33 0.51-0.59 0.71v0c0 0.127-0.007 0.257-0.02 0.39-0.02 0.127-0.03 0.24-0.03 0.34v0c0 0.453 0.057 0.917 0.17 1.39 0.113 0.473 0.187 0.937 0.22 1.39v0c0.653 1.14 1.42 2.173 2.3 3.1 0.88 0.927 1.823 1.783 2.83 2.57 1.007 0.78 2.057 1.51 3.15 2.19 1.087 0.687 2.17 1.353 3.25 2v0c0.387-0.027 0.743 0.017 1.07 0.13 0.327 0.113 0.67 0.187 1.03 0.22v0c0.387 0.293 0.84 0.52 1.36 0.68v0l1.57 0.49c0.52 0.16 1.023 0.347 1.51 0.56 0.487 0.213 0.893 0.497 1.22 0.85v0c0.16 0.033 0.307 0.077 0.44 0.13 0.127 0.047 0.273 0.07 0.44 0.07v0c0.193 0 0.307-0.067 0.34-0.2v0c1.467 0.553 2.9 1.167 4.3 1.84 1.4 0.667 2.88 1.177 4.44 1.53v0c0.62 0.52 1.303 0.977 2.05 1.37 0.747 0.393 1.497 0.793 2.25 1.2 0.747 0.407 1.463 0.847 2.15 1.32 0.68 0.467 1.28 1.027 1.8 1.68v0c0.067 0.62 0.207 1.213 0.42 1.78 0.207 0.573 0.31 1.183 0.31 1.83z" fill="#ffffff" fill-rule="nonzero" stroke="none" stroke-width="1" stroke-linecap="butt" stroke-linejoin="miter" stroke-miterlimit="10" stroke-dasharray="" stroke-dashoffset="0" font-family="none" font-weight="none" font-size="none" text-anchor="none" style="mix-blend-mode: normal" data-fill-palette-color="primary" opacity="1"></path></g></svg></g></svg></g></svg></g></svg></g><g transform="matrix(1,0,0,1,0,0.4379572199192552)"><svg viewBox="0 0 191.01639022487097 175.1828879676985" height="175.1828879676985" width="191.01639022487097"><g><svg xmlns="http://www.w3.org/2000/svg" xmlns:xlink="http://www.w3.org/1999/xlink" version="1.1" x="0" y="0" viewBox="5 8.732001304626465 89.99800109863281 82.53799438476562" enable-background="new 0 0 100 100" xml:space="preserve" height="175.1828879676985" width="191.01639022487097" class="icon-icon-0" data-fill-palette-color="accent" id="icon-0"><path fill-rule="evenodd" clip-rule="evenodd" d="M29.986 91.226c-0.363-0.025-0.727-0.045-1.09-0.078-2.034-0.191-3.899-0.854-5.555-2.053-2.857-2.069-4.684-4.82-5.412-8.282-0.272-1.301-0.348-2.614-0.265-3.939 0.094-1.555 0.404-3.063 0.898-4.538 0.789-2.354 1.979-4.49 3.485-6.459 1.135-1.484 2.42-2.828 3.836-4.047 1.325-1.142 2.528-2.403 3.655-3.738 1.418-1.683 2.701-3.467 3.968-5.263 1.12-1.588 2.221-3.186 3.41-4.721 0.894-1.158 1.837-2.273 2.888-3.292 1.315-1.273 2.766-2.351 4.476-3.05 1.283-0.525 2.616-0.803 4.003-0.832 1.568-0.036 3.117 0.119 4.642 0.492 2.334 0.573 4.356 1.708 6.097 3.36 1.191 1.135 2.199 2.419 3.136 3.763 0.994 1.425 1.907 2.902 2.849 4.362 1.062 1.644 2.158 3.262 3.383 4.792 1.22 1.525 2.566 2.932 4.036 4.219 1.778 1.557 3.356 3.29 4.7 5.236 1.146 1.669 2.08 3.444 2.732 5.362 0.508 1.494 0.827 3.022 0.908 4.601 0.125 2.398-0.289 4.691-1.377 6.848-1.007 1.999-2.465 3.604-4.296 4.879-1.346 0.937-2.798 1.649-4.397 2.045-0.566 0.142-1.141 0.244-1.722 0.3-0.081 0.008-0.159 0.023-0.237 0.035-0.076 0.043-0.16 0.011-0.24 0.021-0.066 0.009-0.136-0.021-0.199 0.021-0.496 0-0.994 0-1.49 0-0.059-0.043-0.126-0.013-0.189-0.021-0.058 0-0.113 0-0.17 0-0.047 0-0.098 0-0.144 0-1.271-0.041-2.505-0.306-3.735-0.591-2.084-0.486-4.127-1.125-6.2-1.653-1.679-0.426-3.372-0.772-5.095-0.969-1.194-0.137-2.391-0.152-3.585-0.111-0.955 0.032-1.903 0.179-2.842 0.354-1.854 0.349-3.671 0.848-5.489 1.344-1.923 0.528-3.846 1.053-5.815 1.375-0.801 0.129-1.603 0.24-2.417 0.232-0.167-0.002-0.333 0.023-0.502 0.019C30.41 91.237 30.198 91.275 29.986 91.226z" fill="#c2185b" data-fill-palette-color="accent"></path><path fill-rule="evenodd" clip-rule="evenodd" d="M66.723 8.768c2.68 0.322 4.727 1.684 6.291 3.832 1.072 1.473 1.746 3.125 2.164 4.891 0.357 1.521 0.492 3.065 0.441 4.627-0.094 2.87-0.768 5.596-2.014 8.182-0.863 1.792-1.977 3.408-3.397 4.802-1.265 1.239-2.696 2.229-4.366 2.846-1.173 0.433-2.379 0.647-3.629 0.573-2.164-0.125-4.001-0.985-5.545-2.487-1.316-1.282-2.213-2.832-2.834-4.548-0.434-1.2-0.705-2.437-0.846-3.702-0.098-0.867-0.137-1.735-0.109-2.603 0.064-2.049 0.432-4.044 1.098-5.981 0.707-2.062 1.709-3.963 3.077-5.663 1.151-1.43 2.496-2.639 4.11-3.532 1.186-0.657 2.449-1.082 3.801-1.235 0.041-0.023 0.086-0.013 0.128-0.016 0.043 0 0.086 0 0.128 0 0.062-0.008 0.128 0.022 0.183-0.022 0.295 0 0.585 0 0.878 0 0.057 0.045 0.121 0.015 0.183 0.022 0.044 0 0.085 0 0.129 0C66.635 8.755 66.681 8.744 66.723 8.768z" fill="#c2185b" data-fill-palette-color="accent"></path><path fill-rule="evenodd" clip-rule="evenodd" d="M5.081 40.413c0.042-0.818 0.189-1.621 0.404-2.411 0.416-1.535 1.097-2.934 2.158-4.132 1.186-1.337 2.652-2.202 4.408-2.551 1.426-0.282 2.833-0.161 4.216 0.265 1.59 0.491 2.996 1.326 4.246 2.413 1.942 1.683 3.334 3.754 4.298 6.124 0.504 1.241 0.853 2.526 1.046 3.851 0.094 0.643 0.139 1.29 0.152 1.94 0.023 1.234-0.101 2.448-0.407 3.642-0.408 1.593-1.095 3.043-2.19 4.284-1.257 1.424-2.824 2.31-4.702 2.615-1.378 0.224-2.733 0.073-4.059-0.355-1.783-0.579-3.311-1.573-4.657-2.86-1.313-1.252-2.356-2.706-3.169-4.323-0.797-1.586-1.347-3.258-1.612-5.017-0.046-0.311-0.084-0.622-0.126-0.932-0.033-0.142-0.02-0.287-0.054-0.428-0.016-0.059-0.007-0.115-0.01-0.176C5.012 42.287 5.046 42.207 5 42.132c0-0.38 0-0.759 0-1.14 0.071-0.104 0.036-0.22 0.044-0.331C5.05 40.578 5.029 40.49 5.081 40.413z" fill="#c2185b" data-fill-palette-color="accent"></path><path fill-rule="evenodd" clip-rule="evenodd" d="M23.897 22.127c0.009-2.263 0.331-4.304 1.088-6.268 0.571-1.485 1.355-2.843 2.447-4.012 1.176-1.262 2.573-2.167 4.258-2.593 1.685-0.428 3.341-0.306 4.969 0.283 1.434 0.52 2.685 1.34 3.796 2.375 1.774 1.65 3.044 3.642 3.949 5.875 0.575 1.42 0.971 2.888 1.197 4.401 0.128 0.858 0.202 1.723 0.22 2.594 0.019 1.096-0.05 2.188-0.231 3.27-0.376 2.261-1.143 4.367-2.511 6.229-0.851 1.155-1.884 2.11-3.152 2.798-1.417 0.768-2.934 1.089-4.539 0.965-1.451-0.111-2.789-0.585-4.037-1.325-1.628-0.964-2.946-2.264-4.043-3.794-1.301-1.817-2.195-3.826-2.761-5.985-0.31-1.181-0.508-2.382-0.598-3.6C23.913 22.883 23.882 22.423 23.897 22.127z" fill="#c2185b" data-fill-palette-color="accent"></path><path fill-rule="evenodd" clip-rule="evenodd" d="M94.998 41.739c0 0.087 0 0.175 0 0.263-0.1 2.182-0.684 4.236-1.627 6.195-0.742 1.535-1.689 2.934-2.861 4.174-1.504 1.594-3.249 2.837-5.324 3.583-1.243 0.447-2.523 0.667-3.846 0.594-1.953-0.11-3.658-0.818-5.092-2.15-1.184-1.101-1.965-2.455-2.457-3.979-0.443-1.366-0.622-2.774-0.577-4.208 0.097-3.153 1.094-6.019 2.821-8.642 0.583-0.888 1.252-1.708 2.002-2.458 1.543-1.537 3.307-2.719 5.396-3.389 1.188-0.378 2.402-0.551 3.646-0.454 1.9 0.147 3.557 0.866 4.947 2.177 1.254 1.183 2.045 2.644 2.523 4.284 0.264 0.906 0.418 1.833 0.449 2.778 0 0.088 0 0.177 0 0.265C94.988 41.094 94.989 41.416 94.998 41.739z" fill="#c2185b" data-fill-palette-color="accent"></path></svg></g></svg></g></svg></g><defs></defs></svg><rect width="395.52" height="109.84221639697971" fill="none" stroke="none" visibility="hidden"></rect></g></svg></g></svg>